<?xml version="1.0" encoding="UTF-8"?><svg id="b" xmlns="http://www.w3.org/2000/svg" viewBox="0 0 149.94 32.07"><defs><style>.d{stroke-width:0px;}</style></defs><g id="c"><path class="d" d="M71.19,12.77c-.87-.73-2-1.09-3.13-1.01-.66,0-1.31.07-1.95.23-.57.15-1.13.35-1.67.6l.45,1.2c.45-.22.92-.39,1.41-.53.54-.14,1.09-.21,1.65-.2.77-.03,1.53.21,2.13.7.27.26.49.58.62.93.14.35.19.73.16,1.11v.35c-.45-.14-.92-.24-1.38-.31-.55-.08-1.11-.12-1.67-.12-.58,0-1.16.07-1.72.22-.48.12-.94.33-1.35.61-.37.26-.67.61-.88,1.01-.21.43-.32.91-.31,1.4-.01.48.1.95.33,1.37.21.38.49.72.84.98.36.27.77.47,1.2.58.44.13.9.19,1.36.19.77.03,1.53-.15,2.2-.52.54-.31,1.01-.72,1.4-1.2v1.52h1.43v-6.1c.04-.55-.04-1.1-.23-1.62-.19-.52-.49-.99-.88-1.38ZM70.89,18.19c0,.38-.08.75-.26,1.08-.17.33-.42.62-.71.86-.32.24-.67.43-1.05.55-.42.14-.86.21-1.3.2-.32,0-.64-.04-.95-.13-.28-.09-.55-.22-.79-.4-.22-.17-.41-.39-.55-.63-.14-.26-.2-.56-.19-.86-.01-.3.05-.59.18-.85s.32-.49.56-.66c.63-.41,1.37-.6,2.12-.55.56-.02,1.12.02,1.67.11.43.07.86.17,1.28.29v.99Z"/><path class="d" d="M78.5,12.46c-.35.25-.66.55-.93.89-.26.35-.47.74-.64,1.14v-2.6h-1.48v9.96h1.48l.02-3.98c0-.67.1-1.34.31-1.98.18-.53.47-1.02.84-1.43.33-.37.74-.67,1.2-.87.49-.19,1.01-.29,1.53-.29h.12v-1.6c-.45-.02-.9.05-1.34.18-.41.12-.79.31-1.13.57Z"/><rect class="d" x="136.37" y="8.07" width="1.7" height="1.64"/><path class="d" d="M60.14,12.75c-.34-.36-.75-.64-1.2-.82-.51-.2-1.06-.3-1.61-.29-.74-.03-1.47.17-2.09.57-.53.37-.97.84-1.31,1.39v-5.81h-1.48v14.07h1.48l-.02-5.81c0-.41.08-.82.23-1.2.13-.37.34-.71.61-.99.27-.28.6-.5.96-.65.38-.15.79-.22,1.2-.22.38-.02.76.03,1.11.17.35.14.67.36.93.63.5.62.75,1.41.71,2.2v5.82h1.49v-6.19c0-.55-.08-1.09-.25-1.61-.16-.47-.42-.9-.76-1.27Z"/><path class="d" d="M85.25,8.88h-1.48v3.01h-1.38v1.3h1.37v6.02c0,.44.06.88.22,1.29.13.33.33.64.59.88.26.23.56.39.89.48.36.11.74.16,1.12.16.33,0,.66-.03.98-.11.29-.06.56-.17.82-.31v-1.28c-.23.12-.47.21-.72.28-.24.05-.48.07-.72.07-.43.02-.86-.11-1.2-.36-.17-.16-.3-.37-.39-.59-.08-.22-.11-.46-.08-.7v-5.83h3.15v-1.3h-3.15v-3.01Z"/><path class="d" d="M47.14,20.24c-.75.36-1.58.53-2.41.51-.71,0-1.42-.14-2.07-.43-.62-.29-1.18-.7-1.65-1.2-.48-.52-.85-1.12-1.11-1.77-.26-.71-.39-1.45-.39-2.2,0-.74.13-1.48.39-2.18.25-.65.63-1.26,1.11-1.77.46-.51,1.02-.92,1.65-1.2.64-.27,1.33-.4,2.02-.39.83-.03,1.66.16,2.41.53.68.35,1.3.8,1.85,1.33l1.05-1.12c-.33-.31-.68-.61-1.05-.88-.38-.26-.78-.49-1.2-.67-.44-.21-.91-.39-1.38-.52-.55-.1-1.1-.15-1.66-.14-.91-.01-1.82.16-2.66.51s-1.6.88-2.24,1.54c-.61.65-1.09,1.4-1.41,2.23-.36.87-.54,1.8-.54,2.73,0,.93.19,1.86.54,2.72.32.82.79,1.57,1.4,2.2.61.63,1.34,1.13,2.15,1.48.85.37,1.77.55,2.7.54.56,0,1.12-.05,1.67-.17.96-.21,1.85-.62,2.64-1.2.41-.27.79-.57,1.16-.9l-1-.98c-.58.57-1.24,1.05-1.96,1.43Z"/><path class="d" d="M131.62,12.46c-.35.25-.66.55-.93.89-.27.35-.5.73-.67,1.14v-2.6h-1.48v9.96h1.48l.06-3.98c-.01-.67.09-1.34.3-1.98.18-.53.47-1.02.85-1.43.33-.37.74-.67,1.2-.87.49-.19,1.01-.29,1.53-.29h.11v-1.6c-.45-.02-.9.05-1.32.18-.41.12-.79.31-1.13.57Z"/><rect class="d" x="136.47" y="11.89" width="1.48" height="9.96"/><path class="d" d="M122.75,8.88h-1.49v3.01h-1.38v1.3h1.38v6.02c0,.44.06.88.22,1.29.13.33.33.64.59.88.26.23.56.39.89.48.36.11.74.16,1.12.16.33,0,.66-.03.97-.11.29-.06.56-.17.82-.31v-1.28c-.23.12-.47.22-.72.28-.24.05-.48.07-.72.07-.43.02-.85-.11-1.2-.36-.17-.17-.3-.37-.38-.59-.08-.22-.11-.46-.08-.7v-5.83s3.14,0,3.14,0v-1.3h-3.15v-3.01Z"/><path class="d" d="M148.99,19.25c-.39.42-.84.77-1.34,1.06-.7.37-1.49.5-2.27.38-.78-.13-1.49-.5-2.04-1.08-.33-.35-.59-.76-.77-1.2-.21-.5-.32-1.04-.31-1.58,0-.52.08-1.03.27-1.52.17-.44.43-.85.75-1.2.32-.35.71-.63,1.14-.82.44-.2.92-.31,1.41-.3.6-.02,1.2.13,1.72.45.48.29.92.65,1.3,1.06l.97-1.05c-.23-.24-.48-.47-.75-.69-.27-.23-.57-.42-.89-.58-.34-.16-.69-.29-1.06-.37-.42-.09-.86-.13-1.29-.13-.7,0-1.39.13-2.03.41-.6.27-1.15.66-1.61,1.13-.46.48-.83,1.04-1.07,1.66-.26.64-.39,1.33-.39,2.02,0,.69.13,1.36.39,2,.25.61.61,1.18,1.07,1.65.46.47,1.01.85,1.61,1.12.64.28,1.34.42,2.03.41.84.04,1.67-.15,2.41-.54.64-.37,1.21-.85,1.7-1.41l-.95-.88Z"/><path class="d" d="M103.92,11.91c-.47-.19-.97-.27-1.47-.24-.41,0-.81.04-1.2.16-.34.09-.66.23-.95.42-.28.18-.53.39-.76.64-.22.25-.43.51-.6.8-.27-.57-.68-1.06-1.2-1.42-.59-.39-1.29-.59-2-.57-.38,0-.76.04-1.12.16-.31.09-.6.23-.87.41-.25.18-.48.38-.69.61-.2.23-.38.46-.54.71v-1.7h-1.49v9.98h1.49v-5.69c-.01-.43.06-.86.2-1.27.13-.36.33-.7.59-.99.24-.28.54-.51.88-.66.34-.16.72-.24,1.1-.23.35-.01.7.05,1.03.18.32.14.61.34.85.6.49.62.73,1.39.69,2.18v5.82h1.46v-5.75c0-.45.07-.89.23-1.31.13-.36.33-.69.59-.98.25-.26.55-.46.88-.59.34-.13.7-.2,1.06-.2.36-.02.71.04,1.04.18.33.14.62.34.86.61.49.63.74,1.43.69,2.23v5.86h1.49v-6.17c.06-1.07-.29-2.13-.99-2.94-.35-.36-.77-.65-1.24-.83Z"/><path class="d" d="M116.9,13.22c-.4-.48-.9-.86-1.46-1.13-.61-.28-1.28-.42-1.96-.41-.66,0-1.32.13-1.93.41-.57.26-1.08.64-1.5,1.11-.43.48-.77,1.04-1,1.65-.23.65-.35,1.34-.35,2.04,0,.73.13,1.45.4,2.12.25.62.62,1.18,1.08,1.65.45.46.98.82,1.58,1.06.61.25,1.27.38,1.93.37.83.03,1.66-.15,2.41-.51.64-.35,1.21-.81,1.69-1.36l-.93-.83c-.4.41-.85.76-1.36,1.02-.55.27-1.17.4-1.78.39-.41,0-.82-.08-1.2-.23-.4-.14-.76-.36-1.07-.65-.33-.3-.6-.66-.79-1.06-.22-.44-.36-.91-.41-1.4h7.89c0-.08,0-.17,0-.25v-.25c0-.7-.1-1.39-.3-2.06-.19-.61-.5-1.18-.91-1.67ZM110.28,16.33c.04-.47.16-.92.35-1.35.16-.39.4-.76.69-1.07.27-.3.61-.54.98-.71.38-.18.79-.27,1.2-.27.43-.01.86.07,1.26.25.39.18.74.44,1.02.77.27.32.48.68.61,1.07.15.42.24.86.28,1.3h-6.38Z"/><path class="d" d="M1.2,14.63c-.32,0-.63.13-.85.35-.23.23-.35.53-.35.85v.3c0,.32.13.63.35.85.23.23.53.35.85.35s.63-.13.85-.35c.23-.23.35-.53.35-.85v-.3c0-.32-.13-.63-.35-.85-.23-.23-.53-.35-.85-.35Z"/><path class="d" d="M25.63,9.82c-.32,0-.63.13-.85.35-.23.23-.35.53-.35.85v5.18c0,.32-.13.63-.35.85-.23.23-.53.35-.85.35s-.63-.13-.85-.35c-.23-.23-.35-.53-.35-.85V6.19c0-.32-.13-.63-.35-.85-.23-.23-.53-.35-.85-.35s-.63.13-.85.35c-.23.23-.35.53-.35.85v1.89c0,.32-.13.63-.35.85-.23.23-.53.35-.85.35s-.63-.13-.85-.35c-.23-.23-.35-.53-.35-.85V1.2c0-.32-.13-.63-.35-.85-.23-.23-.53-.35-.85-.35s-.63.13-.85.35c-.23.23-.35.53-.35.85v19.61c0,.32-.13.63-.35.85-.23.23-.53.35-.85.35s-.63-.13-.85-.35c-.23-.23-.35-.53-.35-.85V6.14c0-.32-.13-.63-.35-.85-.23-.23-.53-.35-.85-.35s-.63.13-.85.35c-.23.23-.35.53-.35.85v6.24c0,.32-.13.63-.35.85-.23.23-.53.35-.85.35s-.63-.13-.85-.35c-.23-.23-.35-.53-.35-.85v-1.4c0-.32-.13-.63-.35-.85-.23-.23-.53-.35-.85-.35s-.63.13-.85.35c-.23.23-.35.53-.35.85v9.99c0,.32.13.63.35.85.23.23.53.35.85.35s.63-.13.85-.35c.23-.23.35-.53.35-.85v-4.29c0-.32.13-.63.35-.85.23-.23.53-.35.85-.35s.63.13.85.35c.23.23.35.53.35.85v9.24c0,.32.13.63.35.85.23.23.53.35.85.35s.63-.13.85-.35c.23-.23.35-.53.35-.85v-.82c0-.32.13-.63.35-.85.23-.23.53-.35.85-.35s.63.13.85.35c.23.23.35.53.35.85v5.76c0,.32.13.63.35.85.23.23.53.35.85.35s.63-.13.85-.35c.23-.23.35-.53.35-.85V12.39c0-.32.13-.63.35-.85.23-.23.53-.35.85-.35s.63.13.85.35c.23.23.35.53.35.85v13.47c0,.32.13.63.35.85.23.23.53.35.85.35s.63-.13.85-.35c.23-.23.35-.53.35-.85v-5.34c0-.32.13-.63.35-.85.23-.23.53-.35.85-.35s.63.13.85.35c.23.23.35.53.35.85v.76c.07.27.22.5.44.66s.49.25.76.24c.32,0,.63-.13.85-.35.23-.23.35-.53.35-.85v-9.95c0-.32-.13-.63-.35-.85-.23-.23-.53-.35-.85-.35Z"/><path class="d" d="M31.42,14.99c-.11-.11-.25-.21-.39-.27-.15-.06-.31-.09-.47-.09-.32,0-.63.13-.85.35s-.35.53-.35.85v.29c0,.32.13.63.35.85.23.23.53.35.85.35s.63-.13.85-.35c.23-.23.35-.53.35-.85v-.27c0-.16-.03-.32-.08-.47-.06-.15-.15-.28-.26-.4Z"/></g></svg>