<?xml version="1.0" encoding="UTF-8"?><svg id="b" xmlns="http://www.w3.org/2000/svg" viewBox="0 0 2497.73 541"><defs><style>.d{stroke-width:0px;}</style></defs><g id="c"><path class="d" d="M719.26,4.15c-147.51,1-267.22,120.77-267.39,269.46.03,22.14,2.79,43.66,7.94,64.26h-126.09c-11.92,77.28-67.64,79.87-97.42,80.84-29.78-.93-110.13-3.56-109.86-147.17-.28-143.99,80.08-151.73,109.86-151.31,29.78-.41,85.5,7.32,97.42,84.98h126.44C453.94,104.27,412.49-.69,232.15,0,52.34-.69.52,175.5,0,271.54c.52,95.69,48.43,266.46,228.04,267.36,152.74,1.93,225.31-99.61,232.07-199.82,29.43,115.35,134.35,201.23,259.15,201.93,147.96-.83,267.74-120.6,267.39-267.39.35-148.69-119.39-268.46-267.39-269.46ZM719.26,418.71c-80.7.52-146.3-65.12-147.17-145.1.83-81.88,66.47-147.55,147.17-147.17,81.22-.38,146.82,65.29,147.17,147.17-.59,80.7-66.47,145.65-147.17,145.1Z"/><polygon class="d" points="1407.43 26.95 1289.28 26.95 1289.28 317.14 1144.18 26.95 1009.45 26.95 1009.45 532.71 1129.67 532.71 1129.67 244.59 1270.62 532.71 1397.07 532.71 1407.43 532.71 1525.58 532.71 1529.72 518.2 1407.43 518.2 1407.43 26.95"/><rect class="d" x="1859.3" y="26.95" width="124.37" height="194.84"/><rect class="d" x="1859.3" y="234.23" width="124.37" height="60.11"/><rect class="d" x="1859.3" y="310.92" width="124.37" height="43.53"/><rect class="d" x="1859.3" y="379.33" width="124.37" height="37.31"/><rect class="d" x="1859.3" y="447.73" width="124.37" height="29.02"/><path class="d" d="M2362.99,310.92h-346.16v43.53h383.47c2.07-11.85-13.44-44.22-37.31-43.53Z"/><rect class="d" x="2016.83" y="379.33" width="124.4" height="37.31"/><rect class="d" x="2016.83" y="447.73" width="124.4" height="29.02"/><rect class="d" x="2016.83" y="518.2" width="124.4" height="14.51"/><polygon class="d" points="1629.22 176.19 1643.73 221.79 1761.88 221.79 1697.62 26.95 1560.82 26.95 1498.63 221.79 1616.78 221.79 1629.22 176.19"/><polygon class="d" points="1612.64 234.23 1494.49 234.23 1473.76 294.34 1593.98 294.34 1612.64 234.23"/><polygon class="d" points="1790.9 310.92 1469.61 310.92 1455.1 354.45 1805.41 354.45 1790.9 310.92"/><polygon class="d" points="1813.7 379.33 1446.81 379.33 1434.41 416.64 1826.13 416.64 1813.7 379.33"/><polygon class="d" points="1413.65 476.75 1540.09 476.75 1548.38 447.73 1424.01 447.73 1413.65 476.75"/><path class="d" d="M2479.07,62.19c.41-8.26-3.66-12.19-12.4-12.4h-16.58v41.42h4.15v-18.66h10.33l12.44,18.66h4.15l-12.44-18.66c6.05-1.24,10.78-4.49,10.36-10.36ZM2462.48,68.41h-8.26v-14.51h10.33c5.91-.83,11.4,1.04,10.36,8.29,1,6.25-5.77,6.91-12.44,6.22Z"/><polygon class="d" points="1664.46 294.34 1784.68 294.34 1766.02 234.23 1647.87 234.23 1664.46 294.34"/><rect class="d" x="2280.08" y="447.73" width="124.4" height="29.02"/><path class="d" d="M2416.88,518.2h-124.37c1.04,5.8,4.94,9.67,12.44,14.51h124.37c-7.5-4.84-11.4-8.74-12.44-14.51Z"/><rect class="d" x="2280.08" y="379.33" width="124.4" height="37.31"/><polygon class="d" points="1836.5 447.73 1710.06 447.73 1718.35 476.75 1844.79 476.75 1836.5 447.73"/><path class="d" d="M2418.99,145.1h0c-4.94-62.87-69.72-115.97-143.06-118.15h-259.1v267.39h310.92c60.39-29.47,94.07-85.16,91.24-149.24ZM2246.91,234.23h-105.71v-95.35h107.79c57.55.35,66.61,96.21-2.07,95.35Z"/><polygon class="d" points="1730.82 518.2 1734.93 532.71 1859.3 532.71 1863.44 532.71 1983.67 532.71 1983.67 518.2 1859.3 518.2 1730.82 518.2"/><path class="d" d="M2462.48,35.24c-.1,0-.21,0-.31,0-18.8.65-33.51,16.43-32.86,35.23-.01.24-.02.48-.02.73-.37,18.69,14.49,34.15,33.19,34.51,20.07-.35,35.62-15.86,35.24-35.24.35-19.21-15.2-34.72-35.24-35.24ZM2462.48,101.57c-16.89.73-30.47-13.4-31.09-31.09.62-17.86,13.99-31.64,31.09-31.09,18.76-.55,32.06,13.3,31.09,31.09.1,1.41.1,2.82,0,4.23-1.17,16-15.09,28.03-31.09,26.86Z"/></g></svg>