<?xml version="1.0" encoding="UTF-8"?><svg id="b" xmlns="http://www.w3.org/2000/svg" viewBox="0 0 185.2 58.7"><defs><style>.d{stroke-width:0px;}</style></defs><g id="c"><polygon class="d" points="92.1 16.4 95.2 15.7 95.2 58.6 96.3 58.6 98.4 58.6 99.2 58.6 99.2 14.9 102.4 14.2 102.4 7.7 92.1 10.2 92.1 16.4"/><polygon class="d" points="49.6 58.6 53.5 58.6 53.5 19.6 49.6 20.5 49.6 58.6"/><polygon class="d" points="65.7 36.4 64.5 18.3 64.4 17 61.3 17.7 61.3 18.3 60 37.7 58.3 18.4 54.5 19.3 58 58.6 58.6 58.6 61.9 58.6 62.9 42.8 64 58.6 67.9 58.6 71.3 15.3 67.3 16.3 65.7 36.4"/><polygon class="d" points="72.1 58.6 72.3 58.6 80.9 58.6 80.9 53.1 76 53.2 76 40.7 79.1 40.4 79.1 35.1 76 35.5 76 19.8 80.9 18.7 80.9 12.9 72.1 15.1 72.1 58.6"/><path class="d" d="M119.8,3.6l-1.4.3-2.5.6v54.2h8.8v-6.9l-4.8.2v-15.4l3.3-.2v-6.6l-3.3.4V10.6l5-1,.1-7.1c-.1-.1-2.6.5-5.2,1.1Z"/><polygon class="d" points="109.7 31.4 107.5 31.7 107.5 6.6 103.6 7.5 103.6 58.6 107.5 58.6 107.5 37.8 109.7 37.5 109.7 58.6 113.6 58.6 113.6 5.1 109.7 6 109.7 31.4"/><polygon class="d" points="16 28.6 16 58.6 17.3 58.6 24.5 58.6 24.5 54.6 19.9 54.7 19.9 46 22.7 45.7 22.7 42 19.9 42.4 19.9 31.5 24.5 30.7 24.5 26.7 17.3 28.3 16 28.6"/><path class="d" d="M88.6,11.1l-3.1.8-.9.2-3.1,46.5h3.9l.5-8,2.1-.1.5,8.1h4l-3.1-47.7-.8.2ZM86.3,45.2l.7-10.5.7,10.4-1.4.1Z"/><polygon class="d" points="10 30.1 8.4 30.6 7 43.2 6.1 31.2 3.7 31.8 3.2 31.9 0 32.7 0 58.6 3.7 58.6 3.7 41.8 5.4 58.6 8.3 58.6 10 41.6 10 58.6 13.7 58.6 13.7 29.2 11.2 29.8 10 30.1"/><path class="d" d="M27.9,25.7l-2,.5v32.4h4v-13.7h1.1l.7.8v12.9h3.9v-14.7l-1.7-1.7,1.7-1.7v-15.2l-1.6-.9c-.9.2-5.1,1.1-6.1,1.3ZM31.6,37.2v3.1l-.7.7c-.4,0-.6.1-1,.1v-11.7c.4-.1.6-.1,1-.2l.7.8v7.2Z"/><path class="d" d="M39.8,22.7l-2,.5v35.4h4v-14.7h1.1l.7.8v14h3.9v-15.8l-1.7-1.7,1.7-1.7v-17.1l-1.6-1c-1,.2-5.1,1.1-6.1,1.3ZM43.5,35.7v3.6l-.7.7c-.4,0-.6.1-1,.1v-13.4c.4-.1.6-.1,1-.2l.7.8v8.4Z"/><path class="d" d="M128.5,1.4l-2,.6v56.7h2.3v-.1h1.9v-23h.7l1.1,1.1v21.9h4.2v-24.6l-2.3-2.2,2.3-2.2V1.2l-1.6-1.1c-1,.2-5.5,1.1-6.6,1.3ZM132.5,9.4v18.6l-1,1.1h-.9c.1-3.8.1-17,.1-20.8.5-.1.7-.1,1.1-.2l.7.8v.5Z"/><path class="d" d="M144.8,19.4l6.5,2.7,1.7-2v-10.2l-1.6-3.8-10.2-6.1v29.9l3.6,1v-11.5ZM144.8,7l4.7,2.7.8,1.7v4.7h-.1l-.6.9-4.8-2.4v-7.6Z"/><polygon class="d" points="176.9 21.7 176.9 25.5 180.1 27.4 180.1 41.2 182.3 41.9 182.3 28.6 185.2 30.3 185.2 26.6 176.9 21.7"/><path class="d" d="M162.5,12.9l-4.1-2.4-1.9-1.2-1.6,1.4v20.8l1.6,2.8,1.9.6,4.1,1.2,1.8.5,1.4-1.8v-17.8l-1.4-3-1.8-1.1ZM162.9,31.3l-.4.6-4.3-1.4-.3-.8v-14.4l.4-.5,4.3,2.5.3.9v13.1Z"/><polygon class="d" points="175.7 35 175.7 32 169.8 23 169.8 22.1 170.2 21.7 173 23.3 173.4 24.3 173.4 26.2 175.7 27.3 175.7 23.3 174.6 20.2 172.7 19.1 172.6 19.1 168.5 16.6 167.2 18.3 167.2 21.1 167.2 24.7 173.4 33.7 173.4 34.6 173 35.1 172.7 35 172.6 35 170.1 34.2 169.8 33.4 169.8 31.5 167.2 30.2 167.2 34.9 168.5 37.8 172.6 39 172.7 39 174.6 39.6 175.7 37.5 175.7 35"/><polygon class="d" points="183.4 50.4 182.3 44 180.2 43.4 180.2 58.5 181.8 58.5 181.8 51.7 183.4 58.5 185.1 58.5 185.1 44.7 183.4 44.2 183.4 50.4"/><path class="d" d="M146.4,34.2l-5.3-1.5v25.8h2.9v-7.8l2.3.1,1.4-1.9v-12h.1l-1.4-2.7ZM145.5,46.1l-.5.8-.9-.1v-9.5l.8.3.6,1.2v7.3Z"/><polygon class="d" points="158.7 51.7 157.6 37.2 155.2 36.5 157.2 58.5 160.1 58.5 162.1 38.4 159.6 37.8 158.7 51.7"/><path class="d" d="M150,35.2l-2.2,23.3h2.5l.5-6.9,1.8.1.5,6.8h2.4l-2-22.4-3.5-.9ZM151,47.8l.6-7.2.6,7.3-1.2-.1Z"/><polygon class="d" points="163 58.5 165.1 58.5 165.1 39.2 163 38.7 163 58.5"/><polygon class="d" points="171.5 58.5 173.5 58.5 173.5 41.5 171.5 41 171.5 58.5"/><path class="d" d="M177.2,42.6l-.3-.1-1.2-.3-1,1.4v13.3l1,1.6h2.7l.9-1.6v-12.2l-.9-1.8-1.2-.3ZM177.5,54.9l-.3.5h-.4l-.2-.5v-9l.3-.4.4.2.2.5v8.7Z"/><polygon class="d" points="168.5 40.2 166.4 39.6 166.4 58.5 168.5 58.5 170.5 58.5 170.5 54.9 168.5 54.8 168.5 40.2"/></g></svg>