<?xml version="1.0" encoding="UTF-8"?><svg id="b" xmlns="http://www.w3.org/2000/svg" viewBox="0 0 1752.54 791.96"><defs><style>.d{stroke-width:0px;}</style></defs><g id="c"><path class="d" d="M363.13,180.71c1.25-2.5,1.25-5.62.62-7.5-1.25-3.12-3.12-6.25-5.62-8.75-5.62-6.25-6.25-9.38-2.5-16.88,1.25-3.12,2.5-5.62,1.25-8.75-1.25-3.12-1.25-6.25-2.5-9.38-1.25-3.75-2.5-7.5,0-11.25,3.75-5.62,7.5-11.88,11.25-17.5s9.38-10.62,10.62-18.12c1.25-8.12,6.88-11.25,14.38-13.12,1.88,0,4.38-.62,5.62-1.88,3.12-2.5,6.88-5,5.62-9.38-1.25-4.38-5-5.62-9.38-5.62-3.12,0-6.25-.62-9.38-1.25-1.25,0-2.5-2.5-1.88-3.75,2.5-7.5-.62-14.38-8.75-16.25-5.62-1.25-10-3.12-13.75-8.12-3.12-4.38-6.88-6.25-11.88-7.5-4.38-.62-8.12-3.75-11.88-6.25-1.88-1.25-3.75-3.75-5.62-5.62-4.38-5-6.88-5-11.88-.62-8.75,8.12-18.75,12.5-30,13.75-11.25,1.25-20.62,4.38-29.38,10.62-5,3.75-10.62,5-16.87,3.12-6.88-1.88-11.88.62-16.88,5.62-3.12,3.12-7.5,5-11.25,6.88-3.75,1.87-6.88,3.12-10,5.62-4.38,3.12-7.5,3.12-11.88,0-3.12-2.5-6.25-4.38-10.62-4.38-7.5,0-15.62-1.25-23.12-1.88-7.5-.63-13.75-3.75-16.25-11.25,0-.62-.62-1.87-1.25-2.5-2.5-4.38-4.38-4.38-8.75-1.25-9.38,6.88-18.75,13.12-28.75,19.38-4.38,2.5-9.38,5-15.62,3.75-11.25-2.5-22.5-1.25-33.12,3.12-11.88,5-23.12,10-35.63,11.88-6.25,1.25-11.88,5-15.62,10-1.25,1.88-1.88,4.38-2.5,6.25,2.5,1.25,4.38,2.5,6.88,2.5,1.88,0,4.38-1.25,6.25-1.25,5.62-.62,11.25-2.5,16.88-1.88,15.62,2.5,31.88,5.62,47.5,9.38,10,1.88,21.88,12.5,16.88,25.62-3.75,8.12-1.88,11.88,5.62,16.88,1.25.62,2.5,1.25,3.12,1.88,1.88,2.5,5.62,5,6.25,7.5,1.87,10,5.62,20,1.25,30.62-.62,1.25,0,3.75.62,5.62,1.88,3.75,2.5,6.87,1.25,10.62-2.5,6.25-5,12.5-6.25,18.75-3.12,13.12-6.25,26.88-8.75,40.62-1.88,9.38.62,18.75,6.25,26.25,5.62,8.13,10.62,15.62,13.12,25,3.12,11.88,6.25,23.75,8.75,36.25,1.25,7.5,3.75,15,1.88,23.12-.62,1.25-.62,3.12,0,4.38,3.12,9.38,2.5,18.75-2.5,27.5-1.25,1.88-.62,5,.62,7.5.62,1.88,2.5,3.75,4.38,5,2.5,2.5,3.75,5.62,3.75,9.38,0,6.25,0,11.87.62,18.12.62,8.75,3.75,18.75,0,27.5-4.38,10.62-10,20-15,30-1.25,3.12-3.12,6.25-3.75,9.38-.62,7.5,5,11.88,10,15,4.38,2.5,5.62,6.25,5,10.62,0,3.12-1.88,6.25-1.88,9.38-.62,3.75,0,7.5,1.25,11.25.62,2.5,2.5,5.62,4.38,8.12,2.5,3.75,1.88,7.5-.62,10.62-4.38,5.62-3.12,10.62,0,16.25,1.88,3.12,4.38,6.25,5,10,3.12,11.88,6.25,23.75,8.75,36.25,2.5,15,3.75,30,6.25,45,1.25,9.38,2.5,18.75,9.38,26.25,4.38,5,6.88,10.62,4.38,17.5-2.5,6.88-1.25,12.5,5.62,16.25.62,0,1.25.62,1.25,1.25,1.25,3.75,4.37,3.12,6.88,1.25,3.12-1.88,1.88-4.37-.62-6.25-1.88-1.25-2.5-2.5-.62-5.62,2.5-4.38,5-9.38,2.5-15-1.25-4.37-3.75-8.12-4.38-12.5-3.12-16.25-5.62-32.5-3.75-48.75.62-6.88,1.88-13.12,1.88-19.38,0-4.38,0-9.38-1.25-13.75-2.5-6.25-2.5-11.25.62-17.5,2.5-5,4.38-10,1.25-15.62-.62-.63-.62-2.5,0-3.75,1.25-3.75,3.12-6.87,3.75-10.62.62-3.12,1.25-6.25.62-9.38-.62-5.62-3.12-10.62-4.37-16.25-3.12-11.25-5-22.5-1.88-34.38l7.5-26.25c3.75-12.5,6.88-25.62,11.25-38.12,3.75-10,3.12-16.25-3.75-22.5-6.25-5.62-6.88-11.25-4.38-18.12,3.12-8.12,4.38-15.62-2.5-23.12-2.5-3.12-1.25-6.25.62-9.38,2.5-3.75,3.75-8.12,6.25-11.88,2.5-4.38,5.62-8.75,8.12-13.12,1.25-3.12,3.12-7.5,2.5-10.62-1.25-5-3.75-10-6.88-14.38-5-7.5-10-15-11.88-23.75-1.25-6.88-2.5-13.75-5.62-19.38-4.38-7.5-4.38-13.75-1.88-21.25,2.5-6.88,1.88-12.5-3.75-17.5-3.12-3.12-3.75-5.62-1.25-9.38,1.25-1.25,1.25-3.12,1.25-4.38-.63-5.62,1.87-10,4.37-14.38,3.75-6.88,7.5-13.75,10.62-21.25,2.5-6.25,0-10-6.25-13.12-3.12-1.88-4.38-3.75-4.38-7.5v-21.25c0-11.25,5.62-18.12,16.88-21.25,8.75-2.5,12.5-4.38,9.38-15-.63-2.5-1.88-4.38-1.88-6.88s.62-5,1.88-6.88c5-6.25,5-5.62,1.88-13.12-1.25-3.75-1.25-6.25,2.5-8.12,7.5-3.75,15.62-4.38,23.75-1.25,6.25,2.5,13.12,4.38,20.62,2.5,1.88-.62,5,1.25,6.25,2.5,4.38,5,8.75,10.62,13.75,16.25h0c-1.25,1.25-2.5,2.5-5,3.12,0,1.88,0,4.38.62,5,3.75,1.87,5.62,4.37,2.5,8.75-.62,1.25-.62,2.5-.62,3.75,0,4.37.62,9.38,0,13.75,0,2.5-1.25,5-3.12,6.25-3.12,1.88-3.75,4.38-3.12,6.88,1.88,5.62,3.75,10.62,8.75,13.75,13.13,8.12,11.25,13.75,8.12,20.62-5,11.25-4.37,22.5-1.25,34.38,3.12,10.62,3.75,20.62,0,31.25-2.5,5.63-1.88,11.25,1.25,16.25,1.88,2.5,4.38,4.38,6.88,6.88,5,5.62,5,8.12,3.12,15.62-2.5,6.87-3.12,13.75-4.37,21.25-.62,5.62,0,11.25-1.25,16.88-1.25,7.5-1.25,15,3.12,21.88,1.25,1.88,1.88,4.38,2.5,6.25,2.5,8.75,5,18.12,7.5,27.5,1.88,7.5,1.25,14.38-3.75,20-.62.63-1.25,1.25-1.25,1.88-.62,3.75-2.5,7.5-3.12,11.25-1.25,8.75-1.87,18.12-4.38,26.25-5,15.62-11.25,30.62-16.87,46.25-2.5,7.5-3.12,14.38,3.12,20.62,5.62,5.62,8.75,13.75,8.12,21.88-.63,9.38-1.88,18.12-1.88,27.5,0,7.5.62,15,5,21.88,3.12,4.38,3.12,9.38,1.88,14.38-.62,4.38-1.87,9.38-.62,13.13,1.88,6.25,1.25,10.62-1.25,15.62-1.25,1.25,0,4.37,0,6.25.63,3.12,1.25,6.25,1.88,10,.62,3.12,0,6.88,1.25,9.38,3.75,10,3.12,19.38-3.75,28.12-3.75,4.38-1.88,9.38,1.25,13.75,12.5,15.62,16.88,33.75,18.12,53.12.62,11.87-3.75,22.5-6.88,33.75-1.88,6.88-2.5,13.75.62,20,.62,1.88,3.75,3.12,5.62,4.38.62-1.25,2.5-3.12,3.12-5,1.25-2.5,1.88-5.62,3.12-8.12,3.75-5.62,7.5-10,10.62-15.62,5-7.5,7.5-16.88,6.88-25.62-.62-7.5,0-15,1.88-22.5,3.12-10.62,3.75-21.25,6.25-31.25.62-4.38,2.5-8.75.62-13.75-1.88-3.75,0-6.88,1.88-9.38,6.88-8.75,6.88-10.63.62-19.38-4.38-6.25-8.75-13.13-11.25-20.63-3.75-10,.62-20.62,1.25-30.62,0-6.87,1.25-14.37,0-21.25-.62-6.87,0-12.5,3.75-18.12,2.5-3.12,3.12-6.25,1.88-10.62-3.12-8.75-3.12-17.5-.62-26.25,1.87-6.25,1.87-12.5-1.88-18.75-.62-.63-.62-3.12,0-3.75,4.38-5.63,3.12-10.63,1.25-16.25-3.12-11.25-1.88-22.5,4.38-32.5s10-20.62,11.88-31.25c1.87-12.5,7.5-21.25,16.25-29.38,2.5-2.5,5-6.25,5-10,.63-6.25.63-13.75-1.25-20-3.12-13.75-8.12-27.5-11.88-41.25-1.25-4.38-2.5-8.75-1.88-13.12.62-5.62,3.75-10.62,5-16.25.62-3.12.62-7.5,0-10.62-1.87-7.5,0-13.12,5-18.75,2.5-2.5,4.38-6.25,5.63-9.38,4.37-9.38.62-18.12-2.5-26.88-4.37-11.88-6.87-23.12-.62-35Z"/><path class="d" d="M548.12,90.08c3.75-7.5,1.88-12.5-5-17.5q-8.13-5-5-14.38v-.63c1.25-3.75,0-6.88-3.75-8.12-5.62-1.25-8.75-4.38-11.88-8.75-4.38-6.88-10-12.5-19.38-9.38-4.38,1.25-8.75-1.25-10-5-3.12-7.5-8.75-8.12-14.38-1.88-3.12,3.12-6.88,6.87-11.25,7.5-10,1.88-15,7.5-17.5,16.87-1.25,4.38-3.75,6.88-8.75,7.5-5,.63-10.62,1.88-15,5-6.87,4.38-13.75,6.25-21.87,5.62-5.62-.62-9.38,2.5-12.5,6.88l-4.38,4.38c-3.12,2.5-6.87,5.62-9.38,8.75-3.12,3.75-2.5,5.62,1.88,6.88,4.38,1.25,10,1.88,14.38,1.25,6.25-1.25,10.63.62,15,3.75,7.5,5.62,15.62,8.75,25,4.38,2.5-1.25,5.63-1.25,8.13-.62,5,1.88,10,3.12,14.38,5.62,5,1.88,10,5,10,11.25,0,10-1.25,19.38-1.25,29.38-.62,4.38-.62,9.38.62,13.75,1.25,3.75.62,6.88-.62,10-1.25,2.5-1.88,5-3.12,6.88-1.25,3.12,0,5.63,1.88,8.12,4.38,5,4.38,6.25,1.25,12.5-1.25,2.5-2.5,4.38-4.38,6.25-3.12,3.12-6.25,5.62-9.38,8.75s-3.13,6.25-.62,9.38c2.5,3.12,5,5.62,8.12,8.75,2.5,3.12,2.5,5,.62,8.75-1.87,3.12-3.12,6.88-2.5,10,1.25,5.62,1.25,10.62-1.88,16.25-1.25,1.88-1.25,5-.63,6.88,3.12,11.25,8.12,21.25,13.75,31.25,5.63,8.75,9.38,18.12,5,29.38-5.62,13.75-5.62,28.12.63,41.88,2.5,5.62,5,11.25,6.25,16.88,1.25,6.88,2.5,14.38,1.88,21.25-.63,13.75-2.5,26.88-3.12,40.62-.63,7.5,0,15,0,22.5-.62,13.12-1.88,25.62-10.62,36.25-1.25,1.25-1.88,5.62-.62,7.5,4.37,7.5,5.62,14.38,4.37,22.5-1.88,8.75-1.25,18.12-9.38,25-6.25,5.62-6.25,10.62-1.88,16.88,8.75,13.12,10,27.5,6.25,42.5-2.5,10-3.75,19.37-1.25,29.37,1.88,8.75,3.12,18.13,5,26.88,0,1.25,3.12,3.12,3.75,2.5,2.5-1.25,5-3.12,6.25-5,4.38-8.13,1.88-16.88,3.75-25,1.25-5.63,2.5-11.88,5-17.5,6.25-13.75,13.75-27.5,21.25-41.25,2.5-3.75,3.12-6.88,1.25-11.25-1.25-3.12-2.5-6.88-3.12-10,0-2.5-.62-5.63.63-8.13,1.25-4.37,1.88-8.12.63-12.5-1.88-5.62-1.25-10.62,2.5-15.62,1.87-2.5,3.12-6.87,2.5-10.62-.62-5.62-3.12-11.25-5-16.88-2.5-6.87-3.75-13.12,0-20,2.5-5,5.63-10,8.12-15,3.12-6.88,3.75-14.38,0-21.25-1.87-3.75-4.37-7.5-5.62-11.25-1.25-4.38-3.12-10-1.88-14.38,3.12-10.62,6.25-21.25,12.5-30.62,3.75-5.62,6.25-11.88,5.62-18.75,0-4.38.63-9.38.63-13.75,0-3.12,1.88-6.88.62-9.38-3.12-8.12-7.5-15.62-12.5-22.5-8.12-10.62-11.25-22.5-7.5-35.62,1.88-7.5,5-14.38,6.88-21.88,2.5-8.12-.62-13.75-8.12-18.12-1.25-.62-2.5-1.88-3.75-3.12h0c2.5-5,6.25-9.37,5.62-16.87-.62-1.25.63-3.12.63-4.38.62-5.62,2.5-11.25-.63-16.87-3.75-7.5-.62-13.75,5-18.75,4.38-3.75,6.25-8.75,6.25-15,0-1.25,0-1.88.63-3.12,1.88-6.88,4.38-14.38,6.88-21.25,1.25-3.12,3.12-7.5,5.62-9.38,3.75-3.12,5.62-6.88,6.25-11.88.63-8.75,1.88-17.5,9.38-23.75,4.38-3.75,3.75-5.62,0-10-5-5.62-6.25-10.62-3.12-17.5Z"/><path class="d" d="M949.37,245.08c0-4.37.62-9.38.62-10.62,0-2.5,1.88-3.75,3.12-5.62,1.87-2.5,6.25-8.12,2.5-14.38-3.75-5.62-16.88-13.75-27.5-16.88-1.25-.62-3.12-.62-5.62-.62-3.12,0-6.25,0-9.38.62-2.5,0-5.62.63-8.12.63h-.62c-3.12,0-6.25-.63-9.38-.63-1.88-.62-3.12-.62-4.38-.62.62-5.62,1.25-11.88,1.25-18.12v-3.75c.62-4.38,1.25-9.38-2.5-13.13-1.25-1.88-4.38-3.75-8.75-3.75-1.25,0-2.5.62-3.75.62h-2.5c-1.88-.62-5-.62-7.5-.62s-4.38,0-5.62.62c-2.5.62-4.37,2.5-5.62,4.38-1.87,3.75-.62,8.12.63,11.88,0,1.88,1.25,4.38,4.37,6.25v15.62h-.62v.62h-25l-1.25-1.25c-3.12-2.5-6.87-5-10.62-5-1.88,0-3.75.62-5,1.88-15,9.38-20.62,11.88-22.5,12.5l-12.5,3.75,9.38,9.38,1.25,1.25q2.5,2.5,2.5,6.25c-1.88,30.62,15,72.5,50,90.62,2.5,1.25,3.12,1.25,3.12,1.88v.62c1.88,5,5.62,7.5,11.88,8.13h2.5c.62,5.62,0,9.38,0,11.25l-8.12-3.12,1.88,13.12c.62,5.62,4.38,10.62,10,13.75l1.87,3.12,3.75-2.5h4.37c6.88,0,10-3.75,11.25-6.25,3.75-5.62,1.88-13.12,0-20-.62-1.88-1.25-5-1.25-6.25v-6.25c3.12-1.25,5.63-3.75,6.88-6.25,5.62-2.5,10.62-5,15.62-6.88,11.88-5,22.5-10,31.88-19.38,5-5.62,6.25-18.75,7.5-46.88ZM890,238.21c-.62-5-1.25-11.87,0-18.12h0s.62-.63,0-.63c17.5.63,21.88,3.75,22.5,5,1.88,3.12,1.88,16.87,1.88,21.88,0,11.88,0,20-.62,23.75-2.5,3.75-14.38,13.12-24.38,16.88-.62-6.88-.62-13.12-.62-20-.62-3.75,0-7.5.62-11.25.62-5.63,1.25-11.25.62-17.5ZM860.62,260.08c0,5-.62,11.25-.62,17.5v6.25c-16.25-16.25-28.75-44.38-26.25-60.62h0c1.88,1.25,5,2.5,9.38,3.75h2.5c5-1.25,8.13-5,10-7.5,0-.62.63-.62.63-1.25,1.25.63,3.12.63,4.37.63h1.25c0,4.38-.63,8.75-.63,13.12-.62,9.38-1.25,19.38-.62,28.12Z"/><path class="d" d="M1003.75,233.83c21.88,15.62,71.88,56.25,78.12,62.5.62.62.62,3.12.62,6.25,0,1.88-.62,4.38-.62,6.88-.62,2.5-.62,5-.62,8.12,0,6.88,5,10.62,10,10.62h0c3.75,0,6.88-2.5,8.75-6.25l.62-.62c1.88-2.5,3.12-5,5.62-6.88,2.5-1.88,4.38-4.37,4.38-9.38,0-3.75-1.25-6.88-2.5-9.38-.62-1.25-1.25-3.12-1.25-3.75v-106.88c6.25-2.5,6.88-7.5,6.88-9.38,0-5.62-4.38-8.12-6.25-9.38l-.62-.62c-3.75-1.88-7.5-5-10.62-8.12l-1.25-.63-.62-.62c-1.25-1.25-3.75-2.5-6.88-2.5-7.5,0-11.88,5.63-11.88,11.25,0,4.37,2.5,6.88,3.75,8.12s1.88,1.88,1.88,3.12v75.62c-3.75-2.5-7.5-5.62-11.25-8.75-3.12-2.5-5.62-4.38-8.75-6.88l-11.87-9.38c-14.38-11.88-28.75-23.75-43.75-35v-13.12l-13.13,11.25c-4.38,3.75-8.75,5.63-16.25,8.12l-16.88,5.62,15.62,8.75c2.5,1.88,3.12,7.5,3.12,11.25v1.25c.63,10.62.63,21.25.63,31.88v7.5c.62,19.38,0,25-.63,26.25,0,.62-.62.62-.62,1.25-1.88,3.12-3.75,6.88-3.75,11.88,0,6.25,3.75,10,6.88,13.12,1.25,1.25,2.5,2.5,3.12,3.75v.62l.62.63c2.5,5.63,6.88,6.88,10,6.88,6.87,0,10.62-5.62,10.62-10.62,0-16.25,0-31.88-.62-47.5,0-12.5-.62-24.37-.62-36.87Z"/><path class="d" d="M768.75,200.71c-5-2.5-12.5-6.87-19.38-11.87-2.5-1.88-5.62-3.12-8.75-3.12-5.62,0-10,2.5-11.88,6.88-1.25,1.25-1.25,3.12-1.25,4.38-.62.62-1.25.62-1.88,1.25-14.38,11.87-34.38,40-46.88,58.75-11.88-16.88-45-63.12-53.75-69.38l-3.75-2.5-4.38,1.88c-3.12,1.25-6.25,3.12-8.75,4.37-4.38,1.87-8.75,4.38-11.88,5.62l-11.87,5,9.38,8.12c3.75,3.75,3.75,4.38,4.38,6.88,0,1.87.62,3.12,1.25,5.62,1.88,7.5,1.25,55-1.25,63.75-3.75,4.38-5.63,10-5,15,.63,4.38,2.5,8.13,6.25,10.62,1.87,1.25,5,4.38,5.62,5.62,1.25,5,5.62,8.75,10.62,8.75,3.12,0,6.25-1.25,8.12-3.75,1.87-2.5,3.12-5,2.5-8.12,0-4.38-.62-43.75-.62-68.75,3.12,4.37,6.87,9.38,10.62,15,8.13,11.25,16.87,23.12,26.25,35.62,1.88,3.12,5.63,7.5,11.25,7.5,1.88,0,5-.63,8.13-3.75h1.25c2.5-.62,6.25-1.25,11.25-3.75l11.25-5.62-10-8.12c-.62-.62-2.5-2.5-3.75-4.38,7.5-14.38,25-38.12,38.12-53.12-.62,31.25-.62,118.75-.62,120,0,6.25,5,10.62,10.62,10.62h0c4.38,0,8.12-2.5,12.5-7.5,1.88-1.25,5-3.75,7.5-5,2.5-1.88,5-3.12,6.88-4.38,9.38-6.25,6.25-14.38,3.75-20-.62-1.25-.62-1.88-1.25-3.12-.62-3.12-1.88-17.5-1.25-91.88v-3.12c4.38-1.25,7.5-4.38,8.12-8.12.63-1.87,1.25-8.12-7.5-11.88Z"/><path class="d" d="M1740,316.33c-12.5-5-43.75-46.88-46.88-55-.62-6.88-3.12-10.62-6.88-12.5,5-1.88,10.62-3.75,15-5l5.62-1.25.62-5.62c1.25-8.75,3.12-11.88,5-15l.62-.62c3.75-6.25,3.12-14.38-1.25-20-1.25-.62-1.87-1.87-2.5-2.5l-1.88-1.88c-2.5-3.12-6.25-7.5-12.5-8.12h-1.25c-2.5,0-5,.62-7.5,1.25-1.88.62-5,1.25-7.5,1.88h-5.62c-5,0-10-.62-15-.62-3.75-.62-6.88-.62-9.38-.62-1.88,0-2.5.62-3.75.62-1.25.62-2.5.62-4.38,1.88l-3.12-.62c-3.75-5-10.62-5-11.88-5-2.5,0-4.38,0-6.25,1.25-1.25.62-1.88,1.25-3.12,1.88-11.88,7.5-16.25,10-18.12,10.62-3.12,0-5.63.62-7.5,2.5-2.5,1.88-3.75,5-3.75,8.13,0,5.62,5,10,11.25,10.62,0,12.5-1.25,55.63-3.12,63.13-3.12,5-5.62,10-3.75,15.62,1.25,4.38,3.75,7.5,8.75,10,3.12,3.12,10,8.75,11.25,10.62,1.88,4.38,6.25,6.88,10.63,6.88,5.63,0,10-4.38,10.62-10v-23.75c0-12.5,0-26.25.62-33.75,1.88-1.88,8.12-5,11.88-5,.62,0-6.25-1.88.62,0,6.88,1.88,16.88,20,25.63,35,11.25,20,23.13,41.25,38.13,51.88,4.37,3.12,7.5,5,11.25,5h0c3.75,0,6.88-2.5,9.38-3.75,1.88-1.88,8.12-5.62,12.5-6.25,7.5-1.25,9.38-5.62,10-8.75.62-7.5-6.25-10.62-12.5-13.12ZM1642.5,215.08c1.25,1.25,4.38,2.5,7.5,4.38h1.25c3.75-.62,5.63-1.88,7.5-2.5.62,0,1.25-.62,1.88-.62,1.25-.62,5-.62,6.25-.62h7.5c0,5-2.5,9.38-6.88,10.62-2.5.62-5.62,1.88-10,3.12-6.25,1.88-14.38,5-21.25,6.88h-1.25c-3.12,1.25-5.63,2.5-7.5,3.12,0-3.75.62-6.88,1.87-8.75,3.75-6.88,8.75-12.5,13.12-15.62Z"/><path class="d" d="M1430.62,218.83c-.63-1.88-.63-3.75-1.25-6.25-1.25-8.12-1.88-13.75-6.88-16.88l-1.25-.62c-3.12-2.5-5-3.75-8.75-3.75-1.87,0-3.75,0-5,.63q-.63.62-1.25.62c-2.5.62-3.75.62-5,1.25-2.5.62-4.38,1.25-10,1.25h-85c-3.12,0-4.37-.62-6.25-1.25s-3.75-1.88-6.88-1.88c-5,0-13.75,4.38-16.25,7.5-2.5,3.12-3.75,8.12-6.25,15.62-.62,1.88-1.25,3.75-1.88,5-1.25,2.5-1.25,6.25.62,8.75,1.88,3.12,5.62,5,10,5,5,0,8.75-1.88,10.63-5.62,4.37-7.5,6.87-9.38,11.25-11.25,1.25,0,6.25-1.25,14.37-1.25,5.63,0,10.63,0,13.75.62,1.25,15-.63,66.88-2.5,74.38,0,0-.62,1.25-.62,1.88-1.25,3.75-4.37,10-1.87,15.62,1.25,2.5,3.12,5.62,8.12,7.5,10,3.75,13.12,6.25,13.75,6.88,1.88,3.75,5.62,5.62,10,5.62h0c5.63,0,10.62-4.38,10.62-8.75v-11.87c0-20-.62-76.25,1.88-90.62,2.5-.62,7.5-1.25,14.37-1.25,7.5,0,14.37.62,17.5,1.88,5,2.5,5.62,3.75,6.88,6.25.62.62.62,1.87,1.25,2.5,1.88,3.75,6.25,6.25,10.62,6.25,3.75,0,7.5-1.88,9.38-4.38s2.5-5.62,1.88-8.75v-.62Z"/><path class="d" d="M1563.13,280.71c-4.38,0-8.75,3.12-10,7.5-1.25,6.25-3.12,8.75-11.88,11.25-4.38,1.25-15.62,2.5-28.12,2.5s-20.62-1.88-24.37-3.12c-2.5-6.88-3.75-30.62-1.25-37.5,3.75-1.25,13.12-1.88,24.37-1.88.63,5.63,5,10,10.63,10s10-5,10-10.62c0-1.25,1.25-6.25,2.5-8.75v-.62c2.5-5.63.63-9.38-.62-11.25s-4.38-5-10-5h-.62c-6.25,0-9.38,4.37-10,5.62h-8.75c-7.5,0-14.37,0-18.75-.62-.62-5.62.62-15.62,1.88-20,3.75-.63,11.88-1.88,21.88-1.88,7.5,0,14.37.62,18.12,1.88,5.62,1.88,8.75,5,13.12,12.5,1.88,3.75,5.62,5.62,10,5.62s7.5-1.88,10-4.37c1.88-2.5,2.5-5,1.88-8.13v-.62c-.62-2.5-.62-5-1.25-6.88-1.25-7.5-2.5-13.12-6.25-17.5-3.12-3.75-9.38-7.5-14.37-7.5-2.5,0-5,.62-6.88,1.25-1.25.62-3.12,1.25-4.38,1.25h-1.87c-4.38-1.25-11.88-1.25-17.5-1.25-1.25,0-9.38,0-16.88.62-1.25-4.38-6.88-8.12-12.5-8.12-1.25,0-2.5,0-3.75.62h-.63c-2.5,1.25-5,3.12-7.5,5-4.38,3.12-8.75,6.88-15.62,7.5-8.12.62-11.88,6.25-11.88,11.25s3.75,9.38,8.75,10.62v3.75c.62,48.75-.62,61.88-1.25,65.62-3.12,3.75-6.88,8.75-5.62,15,.62,2.5,1.87,6.88,8.12,9.38,1.87.62,3.75,1.88,6.25,2.5,3.12,1.25,8.75,3.12,10.63,4.38,1.88,3.75,5.62,6.25,10,6.25h0c4.37,0,7.5-1.87,8.12-3.75.63.62,1.88.62,3.12.62h13.75c7.5,0,26.25,0,41.25-1.88,1.88,1.25,3.75,2.5,7.5,3.12h.62c9.38,0,16.25-10.62,17.5-16.25,1.87-7.5,1.87-17.5,1.87-18.12,0-5.62-3.75-10-9.38-10Z"/><path class="d" d="M1258.12,264.46l.63-1.25c.62,0,.62-.62,1.25-1.25,1.25-1.88,4.38-6.25,3.12-11.25-.62-3.75-3.12-6.87-7.5-8.75-5-2.5-8.13-5-10-7.5-3.12-4.38-8.13-6.88-13.12-6.88-2.5,0-5,.62-7.5,1.88-2.5,1.87-4.38,2.5-7.5,2.5h-36.87c-1.88-2.5-4.38-6.25-6.25-10h3.12c1.25,0,6.25.62,10.62,1.25,7.5.62,11.88,1.25,15,1.25,11.87,0,16.25-1.25,21.25-2.5,1.88-.62,3.13-.62,5-1.25h1.25c2.5,0,6.25.62,8.75,1.25.62.62,1.25.62,1.87.62h2.5c5.62,0,10.62-3.75,11.25-9.38.62-5-3.12-9.38-8.12-10.62-6.25-1.25-11.88-4.38-16.88-8.13-3.12-1.88-5.62-3.75-8.75-5-3.75-1.87-6.25-2.5-9.38-2.5-4.38,0-8.12,1.88-11.88,3.75l-1.25.62c-2.5,1.25-13.12,3.75-20,5-7.5,1.88-14.38,3.12-17.5,4.38h-.62c-.62,0-1.88.62-2.5.62,0-.62-.62-.62-.62-.62-1.25-.62-3.75-1.88-6.88-1.88-2.5,0-5,.62-7.5,2.5-1.88,1.25-3.12,2.5-4.38,3.12-2.5,1.25-2.5,1.87-4.38,2.5-1.88.63-6.25,1.88-7.5,6.88-1.25,5,1.25,8.12,2.5,9.38,2.5,5,8.12,13.12,13.12,20.62,3.12,5,6.25,9.38,7.5,11.88,2.5,4.38,6.25,6.88,11.25,6.88,4.38,0,8.12-1.88,10.62-5,.62-.63,2.5-1.88,8.12-3.12h28.75c.63,0,.63.62.63,1.88-3.12,18.12-18.75,56.88-26.88,62.5-3.12,1.25-5.63,1.88-7.5,1.88s-4.38-.62-5.62-1.25c-1.25-.62-1.88-1.25-3.12-1.88-4.37-2.5-10.62-6.88-15-10.62-3.75-3.12-7.5-4.38-11.88-4.38-6.25,0-11.88,3.75-13.75,9.38-1.25,5,0,9.38,4.38,12.5s8.75,6.88,12.5,10,7.5,6.25,11.25,8.75c0,1.25.62,3.75,1.88,5.62,3.75,4.38,13.75,5,17.5,5h0c45,0,73.13-65.63,85-89.38Z"/><path class="d" d="M980.62,401.96v29.38h0c0,1.88,0,5,.62,9.38-2.5-2.5-5-4.38-7.5-6.25l-45.62-32.5h-10v55.62h13.75v-30h0c0-1.88,0-4.38-.62-8.75,1.88,1.88,3.75,3.12,5.62,4.38l47.5,34.38h10v-55.62h-13.75Z"/><polygon class="d" points="795 433.83 824.37 433.83 824.37 424.46 795 424.46 795 411.96 845.62 411.96 845.62 402.58 780 402.58 780 458.21 846.25 458.21 846.25 447.58 795 447.58 795 433.83"/><polygon class="d" points="1083.75 433.83 1113.75 433.83 1113.75 424.46 1083.75 424.46 1083.75 411.96 1135 411.96 1135 402.58 1068.75 402.58 1068.75 458.21 1135.62 458.21 1135.62 447.58 1083.75 447.58 1083.75 433.83"/><path class="d" d="M1261.87,436.96c10,0,14.37-3.12,14.37-10.62v-13.12c0-7.5-4.38-10.62-14.37-10.62h-55v55.62h15v-21.25h14.38l26.25,21.25h21.25l-30-21.25h8.12ZM1221.25,427.58v-15.62h33.75c4.38,0,6.88.62,6.88,4.38v6.88c0,3.75-1.88,4.38-6.88,4.38h-33.75Z"/><path class="d" d="M1383.75,435.08h24.37v12.5h-46.88v-35h46.88v6.25l14.38-2.5v-1.25c0-10-4.38-12.5-15.62-12.5h-44.38c-11.88,0-16.25,2.5-16.25,13.12v29.38c0,10.62,3.75,13.12,16.25,13.12h44.38c11.88,0,16.25-2.5,16.25-13.12v-19.38h-39.37v9.38Z"/><polygon class="d" points="1526.25 423.83 1503.75 402.58 1483.75 402.58 1517.5 433.21 1517.5 457.58 1532.5 457.58 1532.5 432.58 1566.25 402.58 1548.12 402.58 1526.25 423.83"/></g></svg>