<?xml version="1.0" encoding="UTF-8"?><svg id="b" xmlns="http://www.w3.org/2000/svg" viewBox="0 0 314.27 150.89"><defs><style>.e{stroke-width:0px;}</style></defs><g id="c"><g id="d"><path class="e" d="M200.74,87.21V0h-87.21v87.21h87.21ZM172.78,3.23h24.72v24.76h-24.72V3.23ZM172.78,31.25h24.72v24.75h-24.72v-24.75ZM172.78,59.23h24.72v24.75h-24.72v-24.75ZM141.52,83.98h-24.76v-24.75h24.76v24.75ZM141.52,55.99h-24.76v-24.74h24.76v24.74ZM141.52,27.99h-24.76V3.23h24.76v24.76ZM144.78,3.23h24.72v24.76h-24.72V3.23ZM144.78,31.25h24.72v24.75h-24.72v-24.75ZM144.78,59.23h24.72v24.75h-24.72v-24.75Z"/><polygon class="e" points="179.45 132.17 162.59 132.17 162.59 118.43 158.98 118.43 158.98 149.65 162.59 149.65 162.59 135.69 179.45 135.69 179.45 149.65 183.06 149.65 183.06 118.43 179.45 118.43 179.45 132.17"/><path class="e" d="M252.57,138.1c0,5.49-2.54,8.43-8.21,8.43s-8.21-2.94-8.21-8.43v-19.67h-3.61v19.67c0,8.25,4.64,12.04,11.82,12.04s11.82-3.79,11.82-12.04v-19.67h-3.61v19.67h0Z"/><path class="e" d="M277.16,132.35c-3.84-.94-7.4-1.74-7.4-5.75,0-3.03,2.41-5,5.58-5,2.81,0,5.4,1.38,6.6,3.61l3.34-1.83c-1.6-3.3-5.17-5.44-9.59-5.44-5.8,0-9.59,3.43-9.59,8.97,0,6.29,4.95,7.54,9.37,8.65,3.84.94,7.36,1.74,7.36,5.71,0,3.48-2.9,5.26-6.47,5.26-3.97,0-7.98-2.23-7.98-6.47,0-.27,0-1.03.09-1.7h-3.79c-.09.62-.09,1.43-.09,1.83,0,6.47,5.8,9.95,11.64,9.95,5.44,0,10.3-2.94,10.3-9.23,0-6.33-4.87-7.49-9.37-8.56Z"/><polygon class="e" points="314.27 121.93 314.27 118.43 294.68 118.43 294.68 149.65 314.27 149.65 314.27 146.15 298.3 146.15 298.3 135.74 311.99 135.74 311.99 132.23 298.3 132.23 298.3 121.93 314.27 121.93"/><path class="e" d="M44.85,117.97c-9.09,0-16.46,7.37-16.46,16.46s7.37,16.46,16.46,16.46,16.46-7.37,16.46-16.46c.01-9.09-7.36-16.46-16.46-16.46ZM44.85,147c-6.93,0-12.57-5.64-12.57-12.57s5.64-12.57,12.57-12.57,12.57,5.64,12.57,12.57-5.63,12.57-12.57,12.57Z"/><path class="e" d="M12.62,132.51c-3.85-.94-7.43-1.75-7.43-5.77,0-3.04,2.41-5.01,5.59-5.01,2.82,0,5.41,1.39,6.62,3.62l3.36-1.83c-1.61-3.31-5.19-5.46-9.62-5.46-5.82,0-9.62,3.45-9.62,8.99,0,6.31,4.97,7.56,9.4,8.68,3.85.94,7.38,1.75,7.38,5.73,0,3.49-2.91,5.28-6.49,5.28-3.98,0-8.01-2.24-8.01-6.49,0-.27,0-1.03.09-1.7H.09c-.09.63-.09,1.44-.09,1.84,0,6.49,5.82,9.98,11.68,9.98,5.46,0,10.34-2.95,10.34-9.26s-4.88-7.52-9.4-8.6Z"/><path class="e" d="M207.65,117.97c-9.09,0-16.46,7.37-16.46,16.46s7.37,16.46,16.46,16.46,16.46-7.37,16.46-16.46c0-9.09-7.37-16.46-16.46-16.46ZM207.65,147c-6.93,0-12.57-5.64-12.57-12.57s5.64-12.57,12.57-12.57,12.57,5.64,12.57,12.57-5.64,12.57-12.57,12.57Z"/><polygon class="e" points="89.81 132.17 72.95 132.17 72.95 118.43 69.34 118.43 69.34 149.65 72.95 149.65 72.95 135.69 89.81 135.69 89.81 149.65 93.42 149.65 93.42 118.43 89.81 118.43 89.81 132.17"/><path class="e" d="M118,117.97c-9.09,0-16.46,7.37-16.46,16.46s7.37,16.46,16.46,16.46,16.46-7.37,16.46-16.46c.01-9.09-7.36-16.46-16.46-16.46ZM118,147c-6.93,0-12.57-5.64-12.57-12.57s5.64-12.57,12.57-12.57,12.57,5.64,12.57,12.57c0,6.93-5.63,12.57-12.57,12.57Z"/></g></g></svg>