<?xml version="1.0" encoding="utf-8"?>
<!-- Generator: Adobe Illustrator 28.1.0, SVG Export Plug-In . SVG Version: 6.00 Build 0)  -->
<svg version="1.1" id="Layer_1" xmlns="http://www.w3.org/2000/svg" xmlns:xlink="http://www.w3.org/1999/xlink" x="0px" y="0px"
	 viewBox="0 0 435 131" style="enable-background:new 0 0 435 131;" xml:space="preserve">
<style type="text/css">
	.st0{clip-path:url(#SVGID_00000051381414754374230480000013835288151231746453_);}
</style>
<g>
	<defs>
		<rect id="SVGID_1_" width="435" height="131"/>
	</defs>
	<clipPath id="SVGID_00000070839967784321876840000008510545510475986366_">
		<use xlink:href="#SVGID_1_"  style="overflow:visible;"/>
	</clipPath>
	<g style="clip-path:url(#SVGID_00000070839967784321876840000008510545510475986366_);">
		<path d="M3.5,127c-2.3-2.6-3.5-6.3-3.5-11.1v-3.4h8.9v4.1c0,3.9,1.6,5.8,4.8,5.8c0.7,0,1.3-0.1,2-0.3c0.6-0.2,1.2-0.6,1.6-1.1
			c0.8-0.9,1.2-2.4,1.2-4.5c0-2.3-0.5-4.6-1.7-6.6c-1.7-2.6-3.9-4.9-6.3-6.8c-3.9-3.4-6.6-6.5-8.1-9.2c-1.6-2.9-2.3-6.1-2.3-9.3
			c0-4.7,1.2-8.4,3.6-10.9c2.4-2.6,5.8-3.9,10.4-3.9c4.5,0,7.9,1.3,10.2,3.9c2.3,2.6,3.5,6.3,3.4,11.1v2.5h-8.8V84
			c0.1-1.6-0.3-3.2-1.2-4.5c-0.4-0.5-1-0.9-1.6-1.1c-0.6-0.2-1.3-0.3-1.9-0.3c-3.1,0-4.7,1.9-4.7,5.7c0,2.1,0.6,4.2,1.7,6
			c1.8,2.6,3.9,4.8,6.3,6.8c3.9,3.4,6.6,6.5,8.1,9.3c1.5,3,2.3,6.4,2.2,9.8c0,4.9-1.2,8.6-3.6,11.2c-2.4,2.6-5.9,3.9-10.5,3.9
			C9.3,130.8,5.8,129.6,3.5,127z"/>
		<path d="M36.3,127c-2.4-2.6-3.7-6.3-3.7-11.1V84.6c0-4.8,1.2-8.4,3.7-11c2.4-2.6,6-3.9,10.5-3.9c4.6,0,8.1,1.3,10.5,3.9
			c2.4,2.6,3.7,6.3,3.7,11v31.3c0,4.8-1.2,8.4-3.7,11c-2.4,2.6-6,3.9-10.5,3.9S38.7,129.6,36.3,127z M51.7,116.6V84
			c0-3.9-1.6-5.9-4.8-5.9S42,80.1,42,84v32.5c0,3.9,1.6,5.9,4.8,5.9C50.1,122.3,51.7,120.4,51.7,116.6L51.7,116.6z"/>
		<path d="M70.5,127c-2.4-2.6-3.6-6.3-3.6-11.1V70.5h9.3v46.1c-0.1,1.6,0.3,3.1,1.2,4.4c1,0.9,2.2,1.4,3.5,1.4
			c1.3,0,2.6-0.5,3.5-1.4c0.9-1.3,1.4-2.8,1.2-4.4V70.5h9v45.4c0,4.8-1.2,8.5-3.6,11.1c-2.4,2.6-5.8,3.9-10.4,3.9
			C76.4,130.9,72.9,129.6,70.5,127z"/>
		<path d="M101.5,70.5h11.7l9.1,35.6h0.2V70.5h8.3V130h-9.6L110,86.6h-0.2V130h-8.3L101.5,70.5z"/>
		<path d="M137.8,70.5h14.3c4.7,0,8.2,1.2,10.5,3.7c2.3,2.5,3.5,6.2,3.5,11v30.1c0,4.8-1.2,8.5-3.5,11c-2.3,2.5-5.8,3.7-10.5,3.7
			h-14.3V70.5z M151.9,121.5c0.7,0,1.3-0.1,1.9-0.3c0.6-0.2,1.2-0.6,1.6-1.1c0.9-1.3,1.4-2.8,1.2-4.4V84.8c0.1-1.6-0.3-3.1-1.2-4.4
			c-0.5-0.5-1-0.8-1.6-1.1c-0.6-0.2-1.3-0.3-1.9-0.3h-4.8v42.5L151.9,121.5z"/>
		<path d="M173.2,70.5h25.5V79h-16.2v15.7h12.8v8.5h-12.8v18.3h16.2v8.5h-25.5V70.5z"/>
		<path d="M212.5,99.6l-10.3-29.1h9.8l6.3,19.2h0.2l6.5-19.2h8.8l-10.3,29.1l10.7,30.4h-9.9l-6.8-20.7h-0.2l-7,20.7h-8.8L212.5,99.6
			z"/>
		<path d="M240.4,127.1c-2.4-2.6-3.5-6.2-3.5-10.8v-32c0-4.7,1.2-8.3,3.5-10.8c2.4-2.5,5.8-3.8,10.2-3.8c4.5,0,7.9,1.3,10.2,3.8
			s3.5,6.1,3.5,10.8v6.3h-8.8v-6.9c0-3.7-1.6-5.5-4.7-5.5c-3.1,0-4.7,1.8-4.7,5.5v33.2c0,3.6,1.5,5.4,4.7,5.4c3.1,0,4.7-1.8,4.7-5.4
			v-9.1h8.8v8.4c0,4.7-1.2,8.3-3.5,10.8c-2.4,2.5-5.8,3.8-10.2,3.8C246.1,130.9,242.7,129.6,240.4,127.1z"/>
		<path d="M270,70.5h9.4v24.2h10V70.5h9.4V130h-9.4v-26.8h-10V130H270V70.5z"/>
		<path d="M312.9,70.5h12.7l9.7,59.5H326l-1.7-11.8v0.2h-10.7l-1.7,11.6h-8.7L312.9,70.5z M323.1,110.3L319,80.9h-0.2l-4.1,29.4
			H323.1z"/>
		<path d="M339.8,70.5h11.7l9.1,35.6h0.2V70.5h8.3V130h-9.6l-11.2-43.4h-0.2V130h-8.3V70.5z"/>
		<path d="M379,127c-2.4-2.6-3.6-6.3-3.6-11.1V84.6c0-4.8,1.2-8.5,3.6-11.1s5.8-3.9,10.4-3.9c4.5,0,8,1.3,10.4,3.9s3.6,6.3,3.6,11.1
			v5.1h-8.9V84c0-3.9-1.6-5.9-4.8-5.9s-4.8,2-4.9,5.9v32.6c0,3.9,1.6,5.8,4.9,5.8c3.2,0,4.8-1.9,4.8-5.8v-11.6h-4.7v-8.5h13.5v19.5
			c0,4.8-1.2,8.5-3.6,11.1c-2.4,2.6-5.8,3.9-10.4,3.9C384.8,130.9,381.4,129.6,379,127z"/>
		<path d="M409.3,70.5h25.5V79h-16.1v15.7h12.8v8.5h-12.8v18.3h16.1v8.5h-25.5V70.5z"/>
		<path d="M42.7,8.3L0.2,38.1c0,0,25.3,17.9,59.6,17.9c29.8,0,63.3-14.9,70.8-17.9c12.7-4.5,54.4-28.3,69.3-11.9l41.7-25.3
			c0,0-28.3-4.7-65.6,10C138.6,25.7,117,38.1,76.1,25C64.2,21.1,52.9,15.5,42.7,8.3"/>
	</g>
</g>
</svg>
