<?xml version="1.0" encoding="UTF-8"?><svg id="b" xmlns="http://www.w3.org/2000/svg" viewBox="0 0 786.91 160.72"><defs><style>.d{stroke-width:0px;}</style></defs><g id="c"><path class="d" d="M63.6,159.34c-23.96,0-41.82-12.33-41.82-41.82v-47.24H0v-25.58C23.96,38.48,33.99,17.86,35.14,0h24.88v40.56h29.03v29.73h-29.03v41.13c0,12.33,6.22,16.59,16.13,16.59h14.06v31.34h-26.61ZM152.66,160.72c13.59,0,29.26-5.87,37.79-16.36v14.98h44.82v-25.46h-11.4V40.56h-54.15v25.92h15.44v44.93c0,3.57-2.99,18.67-23.27,18.67-13.02,0-15.44-7.84-15.44-17.75V40.56h-39.86v73.39c0,18.32,8.29,46.77,46.09,46.77ZM249.55,159.34h65.56v-25.46h-13.37v-44.36c0-6.45,5.53-19.7,22.35-19.7,13.59,0,16.36,8.3,16.36,18.09v45.97h-13.25v25.46h65.1v-25.46h-13.6v-44.36c0-6.45,4.95-19.7,21.89-19.7,13.71,0,17.05,8.3,17.05,18.09v45.97h-13.02v25.46h64.75v-25.46h-13.25v-41.48c0-24.43-9.22-53.23-45.62-53.23-17.97,0-32.72,8.52-38.94,19.01-7.84-11.87-19.7-19.01-37.44-19.01-14.06,0-29.49,5.99-37.79,17.4v-16.02h-49.19v25.92h15.9v67.4h-13.48v25.46ZM552.56,160.72c33.18,0,51.04-24.88,51.04-62.21s-16.59-59.33-50.35-59.33c-11.87,0-23.73,4.49-30.88,10.02V0h-54.84v25.69h15.9v133.65h36.52v-10.49c9.33,7.84,20.5,11.87,32.6,11.87ZM544.27,131.8c-11.64,0-23.04-7.37-23.04-30.65,0-28,13.48-32.95,22.81-32.95,10.83,0,20.39,8.76,20.39,30.53,0,31.34-14.05,32.38-20.16,33.06ZM610.75,159.34h66.02v-25.46h-14.05V0h-54.38v25.69h15.9v108.18h-13.48v25.46ZM691.17,159.34h64.86v-25.46h-13.25v-33.18c0-22.58,15.9-27.53,28-27.53h16.13v-33.99h-13.02c-14.75,0-28.34,7.14-34.45,18.55v-17.17h-49.43v25.92h14.29v67.4h-13.13v25.46Z"/></g></svg>