<?xml version="1.0" encoding="UTF-8"?><svg id="b" xmlns="http://www.w3.org/2000/svg" viewBox="0 0 2450.75 395.86"><defs><style>.d{stroke-width:0px;}</style></defs><g id="c"><polygon class="d" points="1294.74 388.83 1567.32 388.83 1567.32 322.13 1368.37 322.13 1368.37 225.83 1561.78 225.83 1561.78 161.4 1368.37 161.4 1368.37 66.69 1567.32 66.69 1567.32 0 1294.74 0 1294.74 388.83"/><path class="d" d="M2364.51,219.82l-61.69-12.61c-35.81-6.67-47.09-13.34-47.09-26.68,0-17.27,17.27-27.88,49.09-27.88,34.48,0,60.02,9.27,66.69,41.15h72.3c-3.93-60.02-47.09-99.64-134.59-99.64-75.63,0-128.72,31.21-128.72,91.7,0,41.82,29.21,69.03,92.24,82.3l68.96,15.94c27.21,5.34,34.48,12.67,34.48,23.94,0,17.94-20.54,29.21-53.76,29.21-41.75,0-65.63-9.27-74.9-41.15h-72.7c10.6,59.89,55.02,99.71,145.26,99.71h0c83.57,0,130.65-40.02,130.65-94.97,0-39.15-27.88-68.36-86.24-81.03Z"/><path class="d" d="M2072.26,19.94h-72.7v81.7h-55.29v65.09h55.02v152.73c0,38.55,27.21,69.1,76.3,69.1h78.23v-65.09h-54.36c-16.61,0-27.21-7.34-27.21-22.61v-134.12h81.57v-65.09h-81.57V19.94Z"/><path class="d" d="M1840.36,127.65c-25.6-21.64-58.06-33.46-91.57-33.35-83.26-1.75-152.18,64.33-153.93,147.59-1.75,83.26,64.33,152.18,147.59,153.93,2.11.04,4.23.04,6.34,0,33.52.15,65.99-11.68,91.57-33.35v25.94h72.5V101.64l-72.5.13v25.88ZM1841.5,245.24c.44,47.88-38.02,87.06-85.9,87.5-.31,0-.63,0-.94,0l.13.13c-48.43.55-88.15-38.26-88.7-86.7-.55-48.43,38.26-88.15,86.7-88.7,48.43-.55,88.15,38.26,88.7,86.7,0,.35,0,.71,0,1.06Z"/><path class="d" d="M248.84,239.77c0,61.76-41.75,102.98-95.51,102.98s-94.57-40.55-94.57-102.64V0H0v242.9c0,91.64,63.83,152.06,146.73,152.06,38.72.27,75.85-15.33,102.78-43.15v36.75h57.02V0h-57.69v239.77Z"/><path class="d" d="M1069.91,140.19v-34.55h-55.02v282.92h55.69v-160.73c0-43.82,25.88-72.36,62.36-72.36h23.28s0-51.82,0-51.82h-20.01c-27.1-.76-52.47,13.23-66.29,36.55Z"/><path class="d" d="M520.56,99.64c-2.09-.04-4.19-.04-6.28,0h-.13c-37.59.03-73.61,15.09-100.04,41.82V0h-55.69v388.56h55.02v-35.88c26.66,26.97,62.93,42.25,100.84,42.48,81.61,1.73,149.17-63.02,150.9-144.62s-63.02-149.17-144.62-150.9ZM510.55,345.14c-.13,0-.27,0-.4,0v.27c-54.11.26-98.18-43.4-98.44-97.51-.26-54.11,43.4-98.18,97.51-98.44s98.18,43.4,98.44,97.51c0,.27,0,.53,0,.8.07,53.7-43.4,97.3-97.11,97.37Z"/><path class="d" d="M976.41,247.1c0-84.37-60.02-147.46-141.26-147.46-80.41.55-145.15,66.17-144.6,146.58,0,.29,0,.59,0,.88,0,84.3,65.03,148.06,149.86,148.06,48.09.91,93.62-21.63,122.05-60.43l-40.42-29.61c-18.82,26.27-49.32,41.64-81.63,41.15-46.85-.22-86.52-34.62-93.37-80.97h229.5l-.13-18.21ZM748.24,221.16c9.94-43.15,44.42-72.36,86.24-72.36s76.23,29.21,85.57,72.36h-171.8Z"/></g></svg>