<svg width="32" height="32" viewBox="0 0 32 32" fill="none" xmlns="http://www.w3.org/2000/svg">
<path fill-rule="evenodd" clip-rule="evenodd" d="M19.3587 20.4194C19.5539 20.6147 19.8705 20.6147 20.0658 20.4194L20.4193 20.0659C20.6146 19.8706 20.6146 19.554 20.4193 19.3588L17.0606 16L20.4193 12.6412C20.6146 12.446 20.6146 12.1294 20.4193 11.9341L20.0658 11.5806C19.8705 11.3853 19.5539 11.3853 19.3587 11.5806L15.9999 14.9393L12.6412 11.5806C12.4459 11.3853 12.1293 11.3853 11.9341 11.5806L11.5805 11.9341C11.3853 12.1294 11.3853 12.446 11.5805 12.6412L14.9393 16L11.5805 19.3588C11.3853 19.554 11.3853 19.8706 11.5805 20.0659L11.9341 20.4194C12.1293 20.6147 12.4459 20.6147 12.6412 20.4194L15.9999 17.0607L19.3587 20.4194Z" fill="black"/>
</svg>
