<svg width="32" height="32" viewBox="0 0 32 32" fill="none" xmlns="http://www.w3.org/2000/svg">
<path fill-rule="evenodd" clip-rule="evenodd" d="M10 11.5C10 11.2239 10.2239 11 10.5 11H21.5C21.7761 11 22 11.2239 22 11.5V12C22 12.2761 21.7761 12.5 21.5 12.5H10.5C10.2239 12.5 10 12.2761 10 12V11.5ZM10 15.5C10 15.2239 10.2239 15 10.5 15H21.5C21.7761 15 22 15.2239 22 15.5V16C22 16.2761 21.7761 16.5 21.5 16.5H10.5C10.2239 16.5 10 16.2761 10 16V15.5ZM10.5 19C10.2239 19 10 19.2239 10 19.5V20C10 20.2761 10.2239 20.5 10.5 20.5H21.5C21.7761 20.5 22 20.2761 22 20V19.5C22 19.2239 21.7761 19 21.5 19H10.5Z" fill="black"/>
</svg>
