<svg width="32" height="32" viewBox="0 0 32 32" fill="none" xmlns="http://www.w3.org/2000/svg">
<path fill-rule="evenodd" clip-rule="evenodd" d="M12.125 10C11.5037 10 11 10.5037 11 11.125V21.875C11 22.4963 11.5037 23 12.125 23H12.875C13.4963 23 14 22.4963 14 21.875V11.125C14 10.5037 13.4963 10 12.875 10H12.125ZM18.125 10C17.5037 10 17 10.5037 17 11.125V21.875C17 22.4963 17.5037 23 18.125 23H18.875C19.4963 23 20 22.4963 20 21.875V11.125C20 10.5037 19.4963 10 18.875 10H18.125Z" fill="black"/>
</svg>
