<svg width="32" height="32" viewBox="0 0 32 32" fill="none" xmlns="http://www.w3.org/2000/svg">
<path fill-rule="evenodd" clip-rule="evenodd" d="M17.8177 14.8636C17.572 14.8482 17.374 14.6563 17.3511 14.4112L16.7925 8.45333C16.7684 8.19639 16.5527 8 16.2947 8H15.7053C15.4473 8 15.2316 8.19639 15.2075 8.45333L14.6489 14.4112C14.626 14.6563 14.428 14.8482 14.1823 14.8636L8.46881 15.2207C8.20529 15.2372 8 15.4557 8 15.7197V16.2803C8 16.5443 8.20529 16.7628 8.46881 16.7793L14.1823 17.1364C14.428 17.1518 14.626 17.3437 14.6489 17.5888L15.2075 23.5467C15.2316 23.8036 15.4473 24 15.7053 24H16.2947C16.5527 24 16.7684 23.8036 16.7925 23.5467L17.3511 17.5888C17.374 17.3437 17.572 17.1518 17.8177 17.1364L23.5312 16.7793C23.7947 16.7628 24 16.5443 24 16.2803V15.7197C24 15.4557 23.7947 15.2372 23.5312 15.2207L17.8177 14.8636Z" fill="#FFB3B6"/>
</svg>
