<svg width="32" height="32" viewBox="0 0 32 32" fill="none" xmlns="http://www.w3.org/2000/svg">
<path fill-rule="evenodd" clip-rule="evenodd" d="M17.4392 15.045C17.1753 15.0367 16.9633 14.8247 16.955 14.5608L16.7651 8.48438C16.7567 8.21445 16.5354 8 16.2654 8H15.7346C15.4646 8 15.2433 8.21445 15.2349 8.48438L15.045 14.5608C15.0367 14.8247 14.8247 15.0367 14.5608 15.045L8.48438 15.2349C8.21445 15.2433 8 15.4646 8 15.7346V16.2654C8 16.5354 8.21445 16.7567 8.48438 16.7651L14.5608 16.955C14.8247 16.9633 15.0367 17.1753 15.045 17.4392L15.2349 23.5156C15.2433 23.7855 15.4646 24 15.7346 24H16.2654C16.5354 24 16.7567 23.7855 16.7651 23.5156L16.955 17.4392C16.9633 17.1753 17.1753 16.9633 17.4392 16.955L23.5156 16.7651C23.7855 16.7567 24 16.5354 24 16.2654V15.7346C24 15.4646 23.7855 15.2433 23.5156 15.2349L17.4392 15.045Z" fill="black"/>
</svg>
