<svg width="32" height="32" viewBox="0 0 32 32" fill="none" xmlns="http://www.w3.org/2000/svg">
<path d="M16.2227 9.38461C17.0547 9.38461 18.0977 8.80483 18.7188 8.03179C19.2812 7.33121 19.6914 6.35283 19.6914 5.37444C19.6914 5.24158 19.6797 5.10871 19.6562 5C18.7305 5.03624 17.6172 5.64018 16.9492 6.44946C16.4219 7.06548 15.9414 8.03179 15.9414 9.02225C15.9414 9.1672 15.9648 9.31214 15.9766 9.36046C16.0352 9.37254 16.1289 9.38461 16.2227 9.38461ZM13.293 24C14.4297 24 14.9336 23.2149 16.3516 23.2149C17.793 23.2149 18.1094 23.9758 19.375 23.9758C20.6172 23.9758 21.4492 22.7921 22.2344 21.6325C23.1133 20.3039 23.4766 18.9994 23.5 18.939C23.418 18.9148 21.0391 17.9123 21.0391 15.0979C21.0391 12.658 22.9141 11.5588 23.0195 11.4743C21.7773 9.63827 19.8906 9.58996 19.375 9.58996C17.9805 9.58996 16.8438 10.4596 16.1289 10.4596C15.3555 10.4596 14.3359 9.63827 13.1289 9.63827C10.832 9.63827 8.5 11.595 8.5 15.2912C8.5 17.5861 9.36719 20.014 10.4336 21.5842C11.3477 22.9129 12.1445 24 13.293 24Z" fill="black"/>
</svg>
