<svg fill="none" height="32" viewBox="0 0 32 32" width="32" xmlns="http://www.w3.org/2000/svg"><path d="m16.2227 9.38461c.832 0 1.875-.57978 2.4961-1.35282.5624-.70058.9726-1.67896.9726-2.65735 0-.13286-.0117-.26573-.0352-.37444-.9257.03624-2.039.64018-2.707 1.44946-.5273.61602-1.0078 1.58233-1.0078 2.57279 0 .14495.0234.28989.0352.33821.0586.01208.1523.02415.2461.02415zm-2.9297 14.61539c1.1367 0 1.6406-.7851 3.0586-.7851 1.4414 0 1.7578.7609 3.0234.7609 1.2422 0 2.0742-1.1837 2.8594-2.3433.8789-1.3286 1.2422-2.6331 1.2656-2.6935-.082-.0242-2.4609-1.0267-2.4609-3.8411 0-2.4399 1.875-3.5391 1.9804-3.6236-1.2422-1.83603-3.1289-1.88434-3.6445-1.88434-1.3945 0-2.5312.86964-3.2461.86964-.7734 0-1.793-.82133-3-.82133-2.2969 0-4.6289 1.95673-4.6289 5.65293 0 2.2949.86719 4.7228 1.9336 6.293.9141 1.3287 1.7109 2.4158 2.8594 2.4158z" fill="#fff"/></svg>