<svg fill="none" height="32" viewBox="0 0 32 32" width="32" xmlns="http://www.w3.org/2000/svg" xmlns:xlink="http://www.w3.org/1999/xlink"><clipPath id="a"><path d="m7 9h18.472v14h-18.472z"/></clipPath><g clip-path="url(#a)"><path d="m22.6476 10.1725c-1.2137-.55565-2.4949-.94983-3.811-1.1725-.1801.32194-.343.65318-.4881.99232-1.4019-.21125-2.8275-.21125-4.2294 0-.1452-.33911-.3081-.67034-.4881-.99232-1.317.22455-2.599.61966-3.81387 1.1754-2.41179 3.5683-3.06559 7.0479-2.73869 10.4782 1.41241 1.0435 2.99326 1.8372 4.67396 2.3464.3784-.509.7133-1.0489 1.001-1.6142-.5465-.2041-1.074-.4559-1.5764-.7525.1322-.0959.2615-.1947.3865-.2906 1.4617.6874 3.0572 1.0438 4.6725 1.0438s3.2107-.3564 4.6725-1.0438c.1264.1031.2557.2019.3864.2906-.5033.2971-1.0318.5494-1.5793.754.2874.565.6223 1.1045 1.0011 1.6127 1.6821-.5072 3.2641-1.3004 4.6768-2.345.3836-3.978-.6552-7.4257-2.7459-10.4825zm-9.4801 8.3715c-.911 0-1.6636-.8267-1.6636-1.8437s.7265-1.851 1.6607-1.851 1.681.834 1.665 1.851-.7337 1.8437-1.6621 1.8437zm6.137 0c-.9124 0-1.6621-.8267-1.6621-1.8437s.7264-1.851 1.6621-1.851c.9356 0 1.6766.834 1.6606 1.851s-.7322 1.8437-1.6606 1.8437z" fill="#fff"/></g></svg>