<svg fill="none" height="32" viewBox="0 0 32 32" width="32" xmlns="http://www.w3.org/2000/svg"><path clip-rule="evenodd" d="m19.0618 12.3782c-.8363-.7855-1.8836-1.1927-3.0618-1.1927-2.08 0-3.8473 1.4036-4.48 3.2945-.16.48-.2545.9891-.2545 1.52s.0945 1.04.2545 1.52l-.0094.0072h.0094c.6327 1.891 2.4 3.2946 4.48 3.2946 1.0764 0 1.9855-.2909 2.6982-.7709.8509-.5673 1.4182-1.4109 1.6073-2.4073h-4.3055v-3.0981h7.5346c.0945.5236.1454 1.0691.1454 1.6363 0 2.4364-.8727 4.4873-2.3854 5.8837h-.0001c-1.3236 1.2218-3.1345 1.9345-5.2945 1.9345-3.1273 0-5.8255-1.7964-7.14182-4.4073v-.0072c-.54545-1.0764-.85818-2.2909-.85818-3.5855 0-1.2945.31273-2.5091.85818-3.5854h.00002-.00002c1.31632-2.61823 4.01452-4.4146 7.14182-4.4146 2.16 0 3.9636.79273 5.3527 2.0873z" fill="#fff" fill-rule="evenodd"/></svg>