<svg width="32" height="32" viewBox="0 0 32 32" fill="none" xmlns="http://www.w3.org/2000/svg">
<path fill-rule="evenodd" clip-rule="evenodd" d="M19.0618 12.3782C18.2255 11.5927 17.1782 11.1855 16 11.1855C13.92 11.1855 12.1527 12.5891 11.52 14.48L11.52 14.4801C11.36 14.9601 11.2655 15.4692 11.2655 16.0001C11.2655 16.531 11.36 17.0401 11.52 17.5201L11.5106 17.5272H11.52C12.1527 19.4181 13.92 20.8218 16 20.8218C17.0764 20.8218 17.9855 20.5309 18.6982 20.0509L18.6982 20.0509C19.5491 19.4836 20.1164 18.64 20.3055 17.6437H16V14.5455H23.5346C23.6291 15.0691 23.68 15.6146 23.68 16.1818C23.68 18.6182 22.8073 20.6691 21.2946 22.0655H21.2945C19.9709 23.2873 18.16 24 16 24C12.8727 24 10.1745 22.2036 8.85818 19.5927L8.85818 19.5855C8.31273 18.5092 8 17.2946 8 16.0001C8 14.7055 8.31273 13.491 8.85818 12.4146H8.85825L8.85818 12.4145C10.1745 9.79637 12.8727 8 16 8C18.16 8 19.9636 8.79273 21.3527 10.0873L19.0618 12.3782Z" fill="black"/>
</svg>
