<svg fill="none" height="32" viewBox="0 0 32 32" width="32" xmlns="http://www.w3.org/2000/svg"><path clip-rule="evenodd" d="m23.5791 10.7588c.2314.6218.3567 1.2781.3713 1.9414.0412.8258.0496 1.1233.0496 3.304 0 2.0988-.0152 2.4149-.0532 3.2018l-.0045.0941c-.0149.663-.1402 1.3193-.3715 1.9411-.2037.5316-.5188 1.0132-.924 1.4123-.396.4093-.878.7253-1.4111.9252-.6211.2316-1.2767.357-1.939.3719-.3148 0-.554.0072-.8499.0161-.4798.0144-1.1087.0333-2.451.0333h-.0001c-2.17 0-2.4752 0-3.3004-.0494-.6627-.0149-1.318-.1403-1.9391-.3719-1.07354-.4137-1.92205-1.2629-2.33534-2.3375-.23497-.6207-.36081-1.2775-.37125-1.9411-.04126-.8261-.04961-1.1317-.04961-3.3043 0-2.1723 0-2.4779.04961-3.304.01044-.6636.13628-1.3206.37125-1.9411.41094-1.07726 1.26441-1.92587 2.34344-2.3294.6201-.23522 1.2762-.36119 1.9393-.37164.3143 0 .552-.00721.8463-.01613.4781-.0145 1.1057-.03353 2.4543-.03353 2.1784 0 2.4755 0 3.3005.04966.6629.01045 1.3193.13642 1.9393.37164.5326.19654 1.0146.5099 1.4109.91682.4073.40092.7227.88568.9242 1.42068zm-1.3534 9.9618c.182-.4746.2767-.9782.2806-1.4866 0-.3166.0061-.5519.0136-.8422.012-.4671.0277-1.0765.0277-2.3959 0-2.1392 0-2.387-.0413-3.2296-.0028-.5085-.0979-1.0124-.2806-1.487-.1253-.3471-.3285-.6607-.594-.9166-.2577-.2658-.5704-.47149-.9158-.60321-.4762-.17485-.9783-.26684-1.4853-.27259-.8253-.0413-1.0976-.0494-3.2348-.0494s-2.3847 0-3.2262.0494c-.507.00575-1.0093.09774-1.4852.27259-.694.27551-1.2433.82531-1.51848 1.51981-.17466.4767-.26656.9795-.2723 1.487 0 .3169-.00726.5523-.01622.8425-.01438.4662-.03313 1.0737-.03313 2.3871 0 2.1313 0 2.3955.04935 3.2381.00653.5073.09869 1.0099.2723 1.4866.13159.3463.33728.6591.60228.9171.2559.2658.5692.4691.9162.5948.4751.1785.9774.2737 1.4852.2807.3166 0 .5518.0061.8416.0136h.0001c.4656.012 1.0725.0277 2.3845.0277 2.1291 0 2.3931 0 3.2348-.0413.5075-.007 1.0101-.1022 1.4853-.2807.6952-.266 1.2443-.8156 1.5098-1.5119zm-2.2258-9.5206c-.4417 0-.7999.3552-.7999.7932s.3582.7932.7999.7932v.0135c.0091.0002.0183 0 .0276-.0002h.0001c.4378-.0114.7834-.3722.7721-.8065 0-.438-.3581-.7932-.7998-.7932zm-3.9999.8c-2.2092 0-4 1.7909-4 3.9999 0 2.2092 1.7908 4.0001 4 4.0001s4-1.7909 4-4.0001c0-2.209-1.7908-3.9999-4-3.9999zm0 6.6075c-1.4271.0177-2.5982-1.1246-2.6157-2.5517-.0177-1.4271 1.1246-2.5983 2.5517-2.6158.0134-.0003.0268-.0005.0402-.0005 1.4228.0002 2.576 1.1537 2.5757 2.5765.0043 1.4175-1.1344 2.5741-2.5519 2.5915z" fill="#fff" fill-rule="evenodd"/></svg>