<svg fill="none" height="32" viewBox="0 0 32 32" width="32" xmlns="http://www.w3.org/2000/svg"><path clip-rule="evenodd" d="m12.3698 10.1846c0-.9295-.7551-1.6846-1.6842-1.6846-.93159 0-1.6856.7551-1.6856 1.6846 0 .9304.75401 1.6855 1.6856 1.6855.9291 0 1.6842-.7551 1.6842-1.6855zm-.2317 12.3154h-2.9065v-9.3516h2.9065zm4.6106-9.3516h-2.7875v9.3516h2.9039v-4.6261c0-1.2197.2321-2.401 1.7444-2.401 1.4903 0 1.5103 1.395 1.5103 2.4794v4.5477h2.9044v-5.1295c0-2.5175-.5434-4.4545-3.4865-4.4545-1.4139 0-2.362.775-2.75 1.5102h-.039z" fill="#fff" fill-rule="evenodd"/></svg>