<svg fill="none" height="32" viewBox="0 0 32 32" width="32" xmlns="http://www.w3.org/2000/svg"><path clip-rule="evenodd" d="m15.4746 17.435-7.39795-6.3482c.05164-.0549.12283-.0868.19866-.0868h15.34379c.0761 0 .1473.0319.1989.0868l-7.3982 6.3482v.0003c-.2736.2351-.6709.2349-.9452-.0003zm8.5254 2.6986-4.5861-4.2039 4.5861-4.2039zm-11.4117-4.1326-4.5883-3.9372v7.8744zm3.3591 2.4079c.3563 0 .7037-.1297.9779-.3646l1.7733-1.5219 4.9941 4.2854c-.024.0069-.0484.0104-.0736.0104h-15.34376c-.02489 0-.04932-.0035-.07328-.0104l4.99404-4.2854 1.7733 1.5219c.2743.2349.6216.3646.978.3646z" fill="#fff" fill-rule="evenodd"/></svg>