<svg fill="none" height="32" viewBox="0 0 32 32" width="32" xmlns="http://www.w3.org/2000/svg"><path d="m17.6511 20.1116c-.9179.031-1.7888-.4061-2.3126-1.1604 0 0-.5095 1.9288-.6271 2.399-.3033.9331-.7247 1.8236-1.2543 2.6498l-.3606-.1178-.3292-.1255c-.1488-.9612-.1488-1.9392 0-2.9003.188-.784 1.1837-5.0173 1.1837-5.0173-.2029-.4727-.3046-.9827-.2979-1.4973 0-1.4032.784-2.4536 1.8265-2.4536.7057-.005 1.2818.5633 1.2865 1.2689.0003.0529-.0027.1055-.0086.1578-.1863 1.1422-.4666 2.267-.8389 3.3631-.1959.7855.282 1.5812 1.0678 1.7769.1404.0352.285.0494.4296.0417 1.7873 0 3.1357-1.8893 3.1357-4.6172.0719-2.1983-1.6517-4.03848-3.85-4.11066-.1094-.00347-.2191-.00273-.3284.00273-2.4137-.10368-4.4545 1.76853-4.5584 4.18233-.003.0665-.0042.1332-.004.1997.0117.8294.286 1.6336.7838 2.2971.0699.0793.096.1877.0704.2902-.0781.3212-.2507 1.0033-.282 1.1444-.0315.1411-.149.2272-.3371.1411-1.2622-.5878-2.046-2.4302-2.046-3.9197 0-3.1828 2.3516-6.1066 6.6635-6.1066 3.504 0 6.2242 2.4928 6.2242 5.8244 0 3.5121-2.1949 6.2872-5.2366 6.2872z" fill="#fff"/></svg>