<svg fill="none" height="32" viewBox="0 0 32 32" width="32" xmlns="http://www.w3.org/2000/svg"><path d="m21.3238 14.9787c-2.9011-1.7229-7.6864-1.8813-10.4558-1.0408-.4449.135-.9151-.116-1.04979-.5608-.13477-.445.11599-.915.56099-1.0502 3.1792-.965 8.464-.7786 11.8038 1.2039.4001.2375.5312.7541.2941 1.1534-.2373.4001-.7543.532-1.1534.2945m-.095 2.5517c-.2035.3303-.6354.4339-.9652.2311-2.4185-1.4866-6.1067-1.9174-8.9681-1.0488-.371.112-.763-.0971-.8756-.4675-.0538-.1781-.0347-.3702.053-.5342.0877-.1641.2369-.2866.4149-.3408 3.2687-.992 7.3323-.5116 10.1102 1.1956.3298.2031.4336.6351.2308.9646zm-1.1012 2.4507c-.0384.0629-.0887.1177-.1483.1612-.0595.0435-.127.0748-.1987.0921-.0716.0173-.146.0204-.2188.0089-.0728-.0114-.1427-.0371-.2055-.0755-2.1135-1.2917-4.7736-1.5834-7.9064-.8678-.0718.0164-.1461.0185-.2187.0062s-.1421-.0388-.2044-.078c-.0624-.0391-.1164-.0902-.159-.1502-.0427-.0601-.073-.1279-.0894-.1997-.0165-.0718-.0187-.1462-.0064-.2189.0122-.0726.0387-.1421.0779-.2045s.0903-.1165.1504-.1591.128-.073.1999-.0893c3.4283-.7836 6.369-.4464 8.7412 1.0032.0629.0384.1176.0888.161.1484s.0746.1271.0919.1987c.0173.0717.0203.146.0089.2188-.0115.0728-.0372.1426-.0756.2055zm-4.1277-12.9811c-4.9703 0-8.9998 4.0294-8.9998 8.9998 0 4.971 4.0295 9.0002 8.9999 9.0002 4.9707 0 9.0001-4.0292 9.0001-9.0002 0-4.9704-4.0294-8.9998-9.0002-8.9998z" fill="#1cd760"/></svg>