<svg fill="none" height="32" viewBox="0 0 32 32" width="32" xmlns="http://www.w3.org/2000/svg"><path d="m21.2068 11.4218c-.108-.0558-.2131-.117-.3149-.1833-.2963-.1958-.5679-.4266-.809-.6873-.6033-.69029-.8286-1.39059-.9116-1.8809h.0033c-.0693-.40698-.0407-.6703-.0363-.6703h-2.7479v10.6255c0 .1426 0 .2836-.006.4229 0 .0174-.0017.0334-.0027.052 0 .0077 0 .0157-.0016.0237v.006c-.0588.7742-.4989 1.4684-1.174 1.8519-.3464.1971-.7383.3005-1.1369.3-1.2803 0-2.3179-1.0439-2.3179-2.3332s1.0376-2.3332 2.3179-2.3332c.2423-.0003.4832.0379.7136.113l.0034-2.7979c-1.4143-.1827-2.8404.2345-3.9332 1.1506-.4736.4115-.87178.9025-1.17659 1.4509-.11599.2-.55364 1.0037-.60663 2.3079-.03333.7403.18899 1.5073.29498 1.8243v.0066c.06667.1867.32499.8237.74594 1.3606.3395.4308.7406.8091 1.1903 1.123v-.0067l.0067.0067c1.3302.9039 2.8052.8446 2.8052.8446.2553-.0103 1.1106 0 2.0819-.4603 1.0772-.5103 1.6905-1.2706 1.6905-1.2706.3918-.4543.7034-.972.9213-1.5309.2487-.6537.3317-1.4376.3317-1.7509v-5.6371c.0333.02.4773.3137.4773.3137s.6396.4099 1.6376.6769c.7159.19 1.6806.23 1.6806.23v-2.7279c-.338.0367-1.0243-.07-1.727-.4203z" fill="#fff"/></svg>