<svg fill="none" height="32" viewBox="0 0 32 32" width="32" xmlns="http://www.w3.org/2000/svg"><path clip-rule="evenodd" d="m9.29067 14.7941c0-4.3048 3.51663-7.7941 7.85443-7.7941 4.3384 0 7.8549 3.4893 7.8549 7.7941 0 4.3042-3.5165 7.7939-7.8549 7.7939-1.3769 0-2.671-.3521-3.7964-.9694l-4.3487 1.3814 1.4176-4.1815c-.71515-1.1748-1.12693-2.552-1.12693-4.0244zm7.85443 6.488c-1.3279 0-2.5647-.3952-3.5973-1.0727l-2.5129.7981.8168-2.4093c-.7828-1.0699-1.2451-2.384-1.2451-3.8041 0-3.5779 2.9332-6.48865 6.5385-6.48865 3.6059 0 6.539 2.91075 6.539 6.48865 0 3.5775-2.9331 6.488-6.539 6.488zm3.6829-4.7172c-.1969-.107-1.1641-.625-1.3455-.6982-.1813-.073-.3136-.1111-.455.0832-.1412.1937-.5425.6275-.6641.756-.1221.1284-.2396.1405-.4367.0332-.0319-.0173-.0755-.0381-.1294-.0636v-.0001c-.2773-.1316-.8257-.3921-1.4456-.9833-.5759-.5494-.9537-1.2157-1.0632-1.4191-.1097-.2035-.0008-.3073.1032-.4025.062-.057.1338-.1373.2056-.2177.0366-.041.0732-.082.1085-.1199.0894-.0961.1292-.1697.1839-.2708.0092-.0169.0188-.0346.0291-.0534.0718-.1303.0429-.2477-.0037-.3491-.0311-.0677-.2044-.5352-.3612-.9584-.0775-.2092-.151-.4075-.2013-.5413-.1337-.3557-.2808-.352-.394-.3491-.0155.0004-.0303.0008-.0444.0003-.0571-.002-.1179-.0081-.1809-.0145-.066-.0068-.1343-.0137-.2028-.0162-.1337-.005-.3529.0368-.544.2289-.0123.0123-.0259.0257-.0407.0403-.2172.2131-.6892.6765-.7237 1.5931-.0368.9749.6406 1.9441.7398 2.086l.0011.0016c.0072.0103.0208.032.0406.0637.2422.387 1.4149 2.2608 3.2708 3.0674 1.6643.7229 1.9567.6641 2.2177.6116.0539-.0109.1066-.0215.1697-.0248.3686-.0192 1.2043-.4375 1.3891-.8955.1847-.4581.1995-.8564.1526-.9412-.0382-.0687-.1316-.1178-.2702-.1906-.0326-.0172-.0678-.0357-.1053-.056z" fill="#fff" fill-rule="evenodd"/></svg>