<svg fill="none" height="32" viewBox="0 0 32 32" width="32" xmlns="http://www.w3.org/2000/svg"><path clip-rule="evenodd" d="m16.5861 13.865c-.019.3743-.0407.8024-.277 1.0987h.0006c-.0192.022-.0386.042-.0599.062-.1155.1217-.2622.2104-.425.2549l-.0314.0067c-.1754.0406-.3602.0285-.529-.0353-.026-.0086-.0514-.018-.0767-.0286-.3385-.1615-.5435-.5313-.7234-.8558-.0204-.0368-.0405-.073-.0604-.1083l-.2512-.4469c-.5684-1.0107-1.1368-2.0217-1.6968-3.0377-.0631-.1147-.1277-.2281-.1923-.3414v-.0001c-.184-.3227-.3674-.64447-.5121-.99136-.0143-.03453-.029-.06943-.0438-.10465v-.00002c-.1512-.35998-.3167-.754-.2364-1.14039.1547-.75027 1.072-1.14167 1.7245-1.35472.2001-.0646.4056-.11856.6124-.16784.2058-.04915.414-.08823.6237-.1171.6797-.09464 1.6765-.14452 2.1434.46139.2421.3138.2651.74229.2861 1.13284.002.03686.0039.07339.006.10945.0223.37541-.0015.74499-.0254 1.11571v.00009c-.0084.13024-.0168.26063-.0232.39145-.0548 1.10125-.1205 2.20205-.1862 3.30275v.0001l-.0406.6824c-.0021.0366-.004.0739-.0059.1117zm5.9311 6.1878c-.12-.1325-.2908-.2636-.5603-.4261-.027-.0153-.0576-.0339-.0879-.0523h-.0001l-.0388-.0235c-.1734-.1046-.3743-.2127-.6025-.3355-.0668-.0359-.1359-.0731-.2073-.1119-.4851-.2664-.9701-.5247-1.4604-.7816l-.8652-.458c-.029-.0087-.0582-.0252-.0868-.0413-.0156-.0087-.031-.0174-.046-.0247-.1664-.0848-.3431-.1477-.5256-.187-.063-.0122-.1268-.0189-.1908-.02-.0416-.0003-.083.0022-.1242.0073-.3552.0546-.635.331-.6937.6851-.0127.1098-.0087.221.0127.3288.042.2304.1447.4574.2515.6565l.4617.8647c.2574.4874.5175.9721.7844 1.4555.0357.0653.0701.1286.1035.1899v.0001l.0001.0002c.1276.2346.2398.4407.346.618l.0232.0379c.0186.0304.0374.061.0528.0887.1635.2683.2943.4373.4271.5592.179.1718.4257.2549.6723.2263.0636-.0077.1265-.0188.1889-.0332.1276-.0341.251-.0827.3676-.1445.351-.1965.6747-.4382.9626-.7191.3456-.3395.6511-.7097.8885-1.1331.0335-.0599.0614-.1219.0855-.1865.0222-.059.0418-.1193.058-.1804.014-.0625.0246-.1251.0321-.1884.0119-.1242-.0025-.2498-.0422-.3682-.0391-.1136-.1028-.2173-.1867-.3036zm-6.5196-1.5332c-.2083-.2925-.5815-.4179-.9247-.3109-.0393.0129-.0776.0288-.1147.0473-.0572.0291-.112.0633-.1634.1018-.1468.1155-.278.2495-.3903.3988-.0099.0126-.0196.0266-.0294.0409-.0186.0272-.0379.0553-.0607.0762l-.5777.7923c-.3268.4447-.6503.8902-.9699 1.3423l-.1018.1418v.0001c-.1665.2315-.3116.4335-.4312.6149l-.0256.04c-.0185.0292-.0371.0584-.0544.084-.1716.2636-.2682.4567-.3183.6285-.0374.114-.0492.2349-.0347.3541.0161.1239.0581.243.1228.3502.0347.0533.072.1052.112.1552.0865.0993.1838.1885.2902.2663.399.2769.8353.4759 1.2942.6298.3822.1264.7792.2024 1.1807.225.0689.0034.1376.002.2055-.0041.0631-.0058.126-.0147.1882-.0265.0622-.0145.1238-.0323.1841-.0533.1173-.0438.2242-.1119.3135-.1997.0848-.0846.1502-.1864.1908-.299.0668-.1664.1108-.3768.1401-.6897.0014-.0311.0051-.0665.0088-.1014.0016-.0152.0031-.0303.0045-.045.0187-.2146.0293-.4608.0414-.7418l.008-.1823c.0288-.552.0507-1.1012.0681-1.6518l.0373-.9801c.0087-.225.0014-.4752-.0614-.6997-.0275-.1077-.0721-.2104-.1321-.3042zm6.739-5.0624c-.2266-.475-.5315-.9087-.9019-1.283-.0478-.0477-.0991-.0917-.1535-.1318-.05-.0377-.1022-.0725-.156-.1046-.0553-.0303-.1124-.0576-.1708-.082-.1152-.045-.2386-.0654-.3623-.0597-.118.0065-.2334.0399-.3381.095-.1581.0786-.3296.2052-.5578.4162-.0228.0228-.05.0478-.077.0726l-.0297.0273c-.1482.1396-.3102.3049-.4946.493l-.0001.0001-.151.1539c-.385.3882-.7631.7783-1.1402 1.1719l-.6737.6976c-.1231.1273-.2351.2647-.3349.4108-.0855.1237-.146.2628-.1781.4095-.0181.1127-.0154.2278.008.3395l.0033.0147c.1107.4795.582.7856 1.0661.6924.028-.004.0558-.0094.0834-.0161l3.5903-.8281.0504-.0115c.267-.0611.535-.1224.7742-.2615.1707-.0978.3329-.1957.4443-.3928.0593-.1085.0952-.2283.1054-.3515.0554-.4886-.2002-1.0432-.4057-1.4719zm-8.4355 4.2082-.8305.1918-.002-.0008-2.7592.6358c-.0153.0036-.0306.0072-.046.0107-.2682.0627-.5369.1254-.81458.1058-.19676-.0138-.38492-.0312-.57164-.1596-.10068-.0714-.18543-.1632-.24882-.2697-.26216-.4141-.27492-1.0247-.27822-1.4999-.00402-.5266.08031-1.05.24954-1.5487.04503-.1219.10368-.2386.17482-.3475.03642-.0512.07572-.1006.11731-.1479.08404-.0911.18629-.1637.30016-.2129.10914-.0456.22688-.0671.34491-.0627.17682.0013.38632.0394.68382.1299.0461.0155.0926.0296.1395.0426.1909.0594.4043.1356.6465.2221.07.025.1423.0509.2173.0775.5164.1805 1.0274.3648 1.5384.5545l.9106.3324c.1666.0603.3276.1347.4816.2222.1308.0739.246.1725.3389.2903.066.0931.114.1976.1414.3083l.0033.0146c.111.4801-.1788.9616-.6557 1.0892-.0347.0113-.0641.0181-.0814.022z" fill="#fff" fill-rule="evenodd"/></svg>