<svg fill="none" height="32" viewBox="0 0 32 32" width="32" xmlns="http://www.w3.org/2000/svg"><path clip-rule="evenodd" d="m22.2514 10.6609c.6897.1824 1.232.7149 1.4152 1.3899.3334 1.2251.3334 3.7825.3334 3.7825s0 2.5575-.3334 3.7825c-.1858.6774-.7279 1.21-1.4152 1.3901-1.2473.3275-6.2513.3275-6.2513.3275s-5.0016 0-6.25143-.3275c-.68979-.1825-1.23203-.7151-1.41522-1.3901-.33345-1.225-.33345-3.7825-.33345-3.7825s0-2.5574.33345-3.7825c.18576-.6775.728-1.21 1.41522-1.3899 1.24983-.3275 6.25143-.3275 6.25143-.3275s5.004 0 6.2513.3275zm-3.6934 5.1724-4.1565-2.3575v4.715z" fill="#fff" fill-rule="evenodd"/></svg>