<svg width="32" height="32" viewBox="0 0 32 32" fill="none" xmlns="http://www.w3.org/2000/svg">
<path fill-rule="evenodd" clip-rule="evenodd" d="M22.2514 10.661C22.9411 10.8435 23.4834 11.3759 23.6666 12.0509C24 13.276 24 15.8334 24 15.8334C24 15.8334 24 18.391 23.6666 19.616C23.4808 20.2934 22.9387 20.8259 22.2514 21.006C21.0041 21.3335 16.0001 21.3335 16.0001 21.3335C16.0001 21.3335 10.9985 21.3335 9.74867 21.006C9.05888 20.8235 8.51664 20.291 8.33345 19.616C8 18.391 8 15.8334 8 15.8334C8 15.8334 8 13.276 8.33345 12.0509C8.51921 11.3734 9.06145 10.8409 9.74867 10.661C10.9985 10.3335 16.0001 10.3335 16.0001 10.3335C16.0001 10.3335 21.0041 10.3335 22.2514 10.661ZM18.558 15.8334L14.4015 13.4759V18.1909L18.558 15.8334Z" fill="black"/>
</svg>
