<?xml version="1.0" encoding="UTF-8"?><svg id="b" xmlns="http://www.w3.org/2000/svg" viewBox="0 0 39.5 41.25"><defs><style>.d{stroke-width:0px;}</style></defs><g id="c"><path class="d" d="M36,17.12c-8.46,0-12.74-14.42-12.78-14.56-.52-1.86-2.45-2.95-4.3-2.43-1.86.52-2.96,2.44-2.44,4.31.13.47,2.06,7.22,6.46,12.69H3.5c-1.93,0-3.5,1.57-3.5,3.5s1.57,3.5,3.5,3.5h19.44c-4.4,5.47-6.33,12.21-6.46,12.69-.52,1.86.58,3.79,2.44,4.31.31.09.63.13.94.13,1.53,0,2.94-1.02,3.37-2.57.04-.15,4.27-14.55,12.77-14.55,1.93,0,3.5-1.57,3.5-3.5s-1.57-3.5-3.5-3.5Z"/></g></svg>