<svg fill="none" height="24" viewBox="0 0 176 24" width="176" xmlns="http://www.w3.org/2000/svg" xmlns:xlink="http://www.w3.org/1999/xlink"><clipPath id="a"><path d="m0 0h176v24h-176z"/></clipPath><g clip-path="url(#a)" fill="#000"><path d="m29.1891 19.9941h-6.4073c-.1613 0-.2932-.1334-.2932-.2963v-19.401504c0-.162963-.132-.296296-.2933-.296296h-3.1464c-.1613 0-.2933.133333-.2933.296296v23.407404c0 .163.132.2963.2933.2963h10.1402c.1613 0 .2933-.1333.2933-.2963v-3.4133c0-.163-.132-.2963-.2933-.2963z"/><path d="m9.22233 0h-4.19627c-.14076 0-.25806.0977778-.28738.237037l-4.73290122 23.407363c-.03812128.1837.10263422.3556.28737522.3556h3.134736c.14076 0 .25806-.0978.28738-.237l.86506-4.2726c.02932-.1393.14662-.2371.28738-.2371h4.5159c.14075 0 .25805.0978.28737.2371l.86502 4.2726c.0294.1392.1467.237.2874.237h3.1348c.1847 0 .3255-.1719.2873-.3556l-4.7358-23.407363c-.02932-.1392592-.14662-.237037-.28737-.237037zm-.72431 15.4785h-2.75059c-.18474 0-.3255-.1718-.28738-.3555l1.51899-7.51115c.03225-.15704.25512-.15704.28737 0l1.51899 7.51115c.03812.1837-.10264.3555-.28738.3555z"/><path d="m44.5844 19.9941h-6.4073c-.1613 0-.2933-.1334-.2933-.2963v-19.401504c0-.162963-.1319-.296296-.2932-.296296h-3.1465c-.1613 0-.2932.133333-.2932.296296v23.407404c0 .163.1319.2963.2932.2963h10.1403c.1613 0 .2932-.1333.2932-.2963v-3.4133c0-.163-.1319-.2963-.2932-.2963z"/><path d="m80.3772 0h-3.1523c-.1613 0-.2903.13037-.2903.293333v9.525927c0 .16296-.1291.29334-.2903.29334h-3.0585c-.1613 0-.2903-.13038-.2903-.29334v-9.525927c0-.162963-.1291-.293333-.2904-.293333h-3.1523c-.1613 0-.2903.13037-.2903.293333v23.413367c0 .1629.129.2933.2903.2933h3.1523c.1613 0 .2904-.1304.2904-.2933v-9.526c0-.1629.129-.2933.2903-.2933h3.0585c.1612 0 .2903.1304.2903.2933v9.526c0 .1629.129.2933.2903.2933h3.1523c.1613 0 .2903-.1304.2903-.2933v-23.413367c0-.162963-.129-.293333-.2903-.293333z"/><path d="m89.0073 0h-3.1523c-.1603 0-.2903.13133-.2903.293333v23.413367c0 .162.13.2933.2903.2933h3.1523c.1604 0 .2903-.1313.2903-.2933v-23.413367c0-.162003-.1299-.293333-.2903-.293333z"/><path d="m105.719 0h-3.146c-.162 0-.294.133333-.294.296296v11.721504c0 .1689-.231.2074-.284.0474l-3.9968-11.863719c-.0411-.121481-.1525-.201481-.2786-.201481h-3.2315c-.1613 0-.2933.133333-.2933.296296v23.407404c0 .163.132.2963.2933.2963h3.1464c.1613 0 .2933-.1333.2933-.2963v-11.7215c0-.1689.2316-.2074.2844-.0474l3.9938 11.8637c.041.1215.153.2015.279.2015h3.231c.162 0 .293-.1333.293-.2963v-23.407404c0-.162963-.131-.296296-.293-.296296z"/><path d="m65.035 0h-10.5567c-.1613 0-.2903.13037-.2903.293333v3.185187c0 .16296.129.29333.2903.29333h3.1201c.1613 0 .2903.13037.2903.29334v19.63851c0 .163.129.2933.2903.2933h3.1523c.1613 0 .2903-.1303.2903-.2933v-19.63555c0-.16297.1291-.29334.2903-.29334h3.1201c.1613 0 .2903-.13037.2903-.29333v-3.188147c0-.162963-.129-.293333-.2903-.293333z"/><path d="m172.326 0h-3.76c-2.029 0-3.674 1.66222-3.674 3.71259v16.57481c0 2.0504 1.645 3.7126 3.674 3.7126h3.76c2.029 0 3.674-1.6622 3.674-3.7126v-16.57481c0-2.05037-1.645-3.71259-3.674-3.71259zm-.059 19.9289c0 .163-.132.2963-.293.2963h-3.056c-.161 0-.293-.1333-.293-.2963v-15.85779c0-.16296.132-.2963.293-.2963h3.056c.161 0 .293.13334.293.2963v15.86079z"/><path d="m118.595 0h-3.574c-2.191 0-3.965 1.79259-3.965 4.00593v15.98517c0 2.2133 1.774 4.0059 3.965 4.0059h3.574c2.191 0 3.965-1.7926 3.965-4.0059v-8.8089c0-.1629-.129-.2933-.29-.2933h-4.877c-.161 0-.29.1304-.29.2933v3.1852c0 .163.129.2933.29.2933h1.144c.161 0 .29.1304.29.2934v4.9748c0 .163-.129.2933-.29.2933h-3.458c-.161 0-.29-.1303-.29-.2933v-15.86075c0-.16297.129-.29334.29-.29334h3.458c.161 0 .29.13037.29.29334v3.40444c0 .16297.129.29334.29.29334h3.153c.161 0 .29-.13037.29-.29334v-3.46666c0-2.21334-1.774-4.00593-3.965-4.00593z"/><path d="m156.279 0h-4.158c-2.029 0-3.674 1.66222-3.674 3.71259v16.57481c0 2.0504 1.645 3.7126 3.674 3.7126h4.158c2.03 0 3.675-1.6622 3.675-3.7126v-9.1022c0-.163-.132-.2963-.293-.2963h-4.871c-.161 0-.293.1333-.293.2963v3.1822c0 .163.132.2963.293.2963h1.138c.161 0 .293.1333.293.2963v4.9719c0 .1629-.132.2962-.293.2962h-3.452c-.161 0-.293-.1333-.293-.2962v-15.86079c0-.16296.132-.2963.293-.2963h3.452c.161 0 .293.13334.293.2963v3.40148c0 .16297.132.2963.293.2963h3.147c.161 0 .293-.13333.293-.2963v-3.75703c0-2.05037-1.645-3.71259704-3.675-3.71259704z"/><path d="m134.633 0h-3.153c-2.19 0-3.964 1.79259-3.964 4.00593v7.25037c0 .4948.308.9363.768 1.1052l6.39 2.3289c.114.0415.193.154.193.2755v4.966c0 .1629-.129.2933-.29.2933h-3.035c-.161 0-.29-.1304-.29-.2933v-3.4045c0-.163-.13-.2933-.291-.2933h-3.152c-.161 0-.29.1303-.29.2933v3.4667c0 2.2133 1.774 4.0059 3.964 4.0059h3.153c2.19 0 3.964-1.7926 3.964-4.0059v-7.2504c0-.4948-.308-.9363-.768-1.1052l-6.39-2.32887c-.114-.04148-.193-.15407-.193-.27556v-4.96592c0-.16297.129-.29334.29-.29334h3.035c.161 0 .29.13037.29.29334v3.40444c0 .16297.129.29334.291.29334h3.152c.161 0 .29-.13037.29-.29334v-3.46666c0-2.21334-1.774-4.00593-3.964-4.00593z"/></g></svg>